<svg xmlns="http://www.w3.org/2000/svg" xmlns:xlink="http://www.w3.org/1999/xlink" viewBox="0 0 750 500"><defs><clipPath id="freepik--clip-path--inject-288"><path d="M223.89,349.18h0a8.33,8.33,0,0,0-7.25,3.89,8.23,8.23,0,0,0,2.4,11.39,8,8,0,0,0,4.12,1.24h0l40.7.49,1.5-16.14Z" style="fill:none"></path></clipPath></defs><g id="freepik--Floor--inject-288"><path d="M719.39,377.75c0,.14-154.2.26-344.37.26s-344.41-.12-344.41-.26,154.17-.26,344.41-.26S719.39,377.61,719.39,377.75Z" style="fill:#263238"></path></g><g id="freepik--Fireplace--inject-288"><path d="M336.07,195.2H296.22V165.26a19.92,19.92,0,0,1,19.93-19.92h0a19.92,19.92,0,0,1,19.92,19.92Z" style="fill:#455a64"></path><circle cx="316.59" cy="165.11" r="11.85" transform="translate(83.48 435.58) rotate(-76.79)" style="fill:#f5f5f5"></circle><path d="M320.83,163.51a33.1,33.1,0,0,1-4.09,3.41l-.39.31v-.51c0-.68,0-1.41,0-2.15,0-2.07,0-3.93.08-5.28a9,9,0,0,1,.18-2.19,9.26,9.26,0,0,1,.19,2.19c0,1.35.07,3.21.07,5.28,0,.74,0,1.47,0,2.15l-.4-.2A34.83,34.83,0,0,1,320.83,163.51Z" style="fill:#263238"></path><path d="M327.19,188.73a3.47,3.47,0,0,1,0-.49c0-.36,0-.81-.05-1.35,0-1.22-.05-2.87-.09-4.93l.17.17c-5,.06-12.67.1-21.2.1l.26-.26h0v6.74l-.26-.25c6.05,0,11.31.06,15.09.11l4.46.07,1.21,0,.44,0a1.65,1.65,0,0,1-.38,0l-1.16,0-4.4.07c-3.77,0-9.11.11-15.26.12h-.25v-.25c0-1.07,0-2.18,0-3.31V182h0c.52-.53.15-.15.26-.27,8.53,0,16.17,0,21.2.1h.17V182c0,2.1-.07,3.79-.09,5,0,.53,0,1,0,1.31A2.55,2.55,0,0,1,327.19,188.73Z" style="fill:#263238"></path><rect x="165.61" y="209.44" width="178.31" height="157.78" style="fill:#81A1C1"></rect><rect x="194.73" y="242.51" width="123.87" height="123.87" style="fill:#fafafa"></rect><path d="M318.59,366.37s0-.2,0-.59,0-1,0-1.71c0-1.51,0-3.74,0-6.65,0-5.82,0-14.35-.06-25.19,0-21.67-.06-52.61-.11-89.72l.22.22-123.85,0h0l.26-.26c0,45.35,0,87.86,0,123.86l-.22-.22,89.72.11,25.19.06,6.65,0H318l-1.69,0-6.6,0-25.14.06-89.87.12h-.23v-.23c0-36,0-78.51,0-123.86v-.26h.27l123.85,0h.23v.23c-.05,37.17-.09,68.16-.12,89.86,0,10.82,0,19.33-.05,25.14,0,2.89,0,5.11,0,6.61,0,.74,0,1.3,0,1.69S318.59,366.37,318.59,366.37Z" style="fill:#263238"></path><path d="M224.59,349.52c-7.8-11.68-6.66-28.57,2.63-39.11,1.62-1.83,3.66-3.57,6.09-3.67s5,2.29,4.16,4.59c-.59,1.64-2.59,2.55-2.94,4.26-.41,2,1.93,3.73,3.91,3.34s3.42-2.18,4.17-4.06,1-3.93,1.65-5.85,1.89-3.8,3.81-4.45c1.68-.56,3.52-.07,5.26-.36,3.25-.54,5.5-3.77,6-7s-.28-6.56-1-9.78-1.39-6.59-.55-9.78c1.23-4.74,5.77-8.23,10.62-8.89A17.7,17.7,0,0,1,282,273.16a29.37,29.37,0,0,1,8,12.14,43.73,43.73,0,0,1-13.19,49.12c-2.82,2.32-6,4.31-8.33,7.09s-3.9,6.63-2.76,10.1" style="fill:#81A1C1"></path><g style="opacity:0.5"><path d="M224.59,349.52c-7.8-11.68-6.66-28.57,2.63-39.11,1.62-1.83,3.66-3.57,6.09-3.67s5,2.29,4.16,4.59c-.59,1.64-2.59,2.55-2.94,4.26-.41,2,1.93,3.73,3.91,3.34s3.42-2.18,4.17-4.06,1-3.93,1.65-5.85,1.89-3.8,3.81-4.45c1.68-.56,3.52-.07,5.26-.36,3.25-.54,5.5-3.77,6-7s-.28-6.56-1-9.78-1.39-6.59-.55-9.78c1.23-4.74,5.77-8.23,10.62-8.89A17.7,17.7,0,0,1,282,273.16a29.37,29.37,0,0,1,8,12.14,43.73,43.73,0,0,1-13.19,49.12c-2.82,2.32-6,4.31-8.33,7.09s-3.9,6.63-2.76,10.1" style="fill:#fff"></path></g><path d="M233.39,350.79c-1.68-2.84-3.4-5.79-3.73-9.07s1.17-7,4.25-8.16c2.08-.79,4.46-.31,6.57-1,3-1,4.68-4.09,6.39-6.76a42.81,42.81,0,0,1,10.85-11.44,12.85,12.85,0,0,1,5-2.46,5.42,5.42,0,0,1,5.14,1.61c1.84,2.28.73,5.77-1.12,8.05s-4.37,4.07-5.65,6.72c-1.53,3.16-1,6.88-.82,10.39s-.36,7.51-3.19,9.6c-1.16.86-2.59,1.28-3.79,2.09s-2.2,2.26-1.77,3.64" style="fill:#81A1C1"></path><path d="M273.28,302.61a3.35,3.35,0,1,0,.27-.29" style="fill:#81A1C1"></path><g style="clip-path:url(#freepik--clip-path--inject-288)"><path d="M223.89,349.18h0a8.33,8.33,0,0,0-7.25,3.89,8.23,8.23,0,0,0,2.4,11.39,8,8,0,0,0,4.12,1.24h0l40.7.49,2.53-16Z" style="fill:#263238"></path><path d="M215.43,356.23a5,5,0,0,1,1.49-.91,11.19,11.19,0,0,1,4.7-.76,23.2,23.2,0,0,1,6.92,1.41c1.26.41,2.58.86,4,1.2a14.35,14.35,0,0,0,4.36.48c3-.21,5.66-1.69,8.31-2.15a13.57,13.57,0,0,1,7,.72,32.44,32.44,0,0,1,4.34,2c.5.27.88.48,1.13.63a3.15,3.15,0,0,1,.39.24,2.3,2.3,0,0,1-.42-.17l-1.17-.56a36.19,36.19,0,0,0-4.36-1.83,13.41,13.41,0,0,0-6.85-.64,30.29,30.29,0,0,0-4,1.18,17.25,17.25,0,0,1-4.39,1,14.35,14.35,0,0,1-4.48-.49c-1.42-.35-2.74-.81-4-1.22a23.36,23.36,0,0,0-6.82-1.48,11.56,11.56,0,0,0-4.63.62A12.87,12.87,0,0,0,215.43,356.23Z" style="fill:#455a64"></path><path d="M243.69,360.49s.08-.07.26-.15a3,3,0,0,1,.84-.23,3.66,3.66,0,0,1,3.07,1l.11.11-.14.08a8.56,8.56,0,0,1-7,.37,5,5,0,0,1-1-.48,1.32,1.32,0,0,1-.65-1,1.27,1.27,0,0,1,.76-1,10.25,10.25,0,0,1,1.06-.5,11.6,11.6,0,0,1,4.83-.87,11.42,11.42,0,0,1,4.14.91,6,6,0,0,1,1.76,1.06,2,2,0,0,1,.65,1.89,2.82,2.82,0,0,1-1.08,1.57,5,5,0,0,1-1.56.81,8.39,8.39,0,0,1-3.1.39,15.63,15.63,0,0,1-4.37-.95c-.5-.17-.89-.31-1.14-.41a2.07,2.07,0,0,1-.39-.18,1.9,1.9,0,0,1,.41.1l1.16.35a17.6,17.6,0,0,0,4.34.82,8.38,8.38,0,0,0,3-.43,4.77,4.77,0,0,0,1.46-.77,2.51,2.51,0,0,0,.94-1.37,1.64,1.64,0,0,0-.56-1.55,5.51,5.51,0,0,0-1.65-1,11.06,11.06,0,0,0-4-.87,11.28,11.28,0,0,0-4.67.83,9.59,9.59,0,0,0-1,.48c-.32.17-.58.4-.58.68a.92.92,0,0,0,.49.73,4.85,4.85,0,0,0,.91.46,8.37,8.37,0,0,0,6.76-.27l0,.19a3.58,3.58,0,0,0-2.87-1.07A5.29,5.29,0,0,0,243.69,360.49Z" style="fill:#455a64"></path><path d="M265,352.36s-.61-.22-1.72-.58a27.25,27.25,0,0,0-4.82-1.13,23,23,0,0,0-7.28.12c-2.72.47-5.49,1.82-8.56,2.77s-6.26,1.38-9,.56a58.76,58.76,0,0,1-6.83-2.82,22.64,22.64,0,0,0-2.65-.94A12.16,12.16,0,0,0,222,350l-.78,0c-.22,0-.41,0-.56,0a3.43,3.43,0,0,1-.48,0,1.69,1.69,0,0,1,.47-.1c.15,0,.34-.06.57-.08H222a10.4,10.4,0,0,1,2.14.29,21.3,21.3,0,0,1,2.7.9,63.18,63.18,0,0,0,6.82,2.72,15.26,15.26,0,0,0,8.77-.59c3-.93,5.83-2.28,8.61-2.75a22.6,22.6,0,0,1,7.39,0,25.25,25.25,0,0,1,4.83,1.25c.55.21,1,.38,1.25.52A2.47,2.47,0,0,1,265,352.36Z" style="fill:#455a64"></path><path d="M260.3,360.63a2,2,0,0,1-.35.34c-.25.21-.61.52-1.09.89a29.57,29.57,0,0,1-4.33,2.83,23.08,23.08,0,0,1-7.24,2.52,17.26,17.26,0,0,1-9.31-1c-3.12-1.26-5.71-3.14-8.21-4.54a19,19,0,0,0-7.06-2.64,10.29,10.29,0,0,0-5,.57,12.39,12.39,0,0,0-1.67.87,5.27,5.27,0,0,1,1.61-1,10.13,10.13,0,0,1,5.11-.71,19.05,19.05,0,0,1,7.2,2.61c2.53,1.39,5.13,3.25,8.19,4.49a17.07,17.07,0,0,0,9.1,1,23.29,23.29,0,0,0,7.17-2.4,34.77,34.77,0,0,0,4.37-2.71l1.13-.83A2.35,2.35,0,0,1,260.3,360.63Z" style="fill:#455a64"></path></g><path d="M268.87,351.25a8.13,8.13,0,1,1-11.07,2.59A8,8,0,0,1,268.87,351.25Z" style="fill:#455a64"></path><path d="M268.87,351.25a16.17,16.17,0,0,0-1.82-.76,8,8,0,0,0-8.22,2.28,8.19,8.19,0,0,0-1.93,3.68,7.62,7.62,0,0,0-.19,2.25,7.46,7.46,0,0,0,.49,2.3,7.61,7.61,0,0,0,7.8,5,7.37,7.37,0,0,0,2.29-.54,7.77,7.77,0,0,0,2-1.13,8.16,8.16,0,0,0,2.51-3.3,8.05,8.05,0,0,0-1.43-8.42,15.74,15.74,0,0,0-1.46-1.32,6.05,6.05,0,0,1,1.57,1.22,7.88,7.88,0,0,1,2.19,4.91,8.33,8.33,0,0,1-.57,3.73,8.42,8.42,0,0,1-2.59,3.47,8.27,8.27,0,0,1-2,1.19,8,8,0,0,1-2.4.57,8,8,0,0,1-8.19-5.21,7.52,7.52,0,0,1-.5-2.41,7.93,7.93,0,0,1,.21-2.35,8.35,8.35,0,0,1,2-3.82,8.12,8.12,0,0,1,3.13-2.1,8,8,0,0,1,5.38-.11A6.12,6.12,0,0,1,268.87,351.25Z" style="fill:#263238"></path><path d="M264.66,351.68a1.41,1.41,0,0,1,.36.1c.23.08.58.21,1,.4a14.18,14.18,0,0,1,1.52.79,6.57,6.57,0,0,1,1.78,1.45A4.75,4.75,0,0,1,270.4,357a7.49,7.49,0,0,1-.39,3.17,6.06,6.06,0,0,1-2,2.91,5,5,0,0,1-3.69.83,8.68,8.68,0,0,1-3.56-1.31,4.53,4.53,0,0,1-2.06-2.86,6.61,6.61,0,0,1,.25-3.19,10.21,10.21,0,0,1,1.12-2.54,4.92,4.92,0,0,1,3.14-2.38,3,3,0,0,1,1.1,0,1,1,0,0,1,.37.09,4.57,4.57,0,0,0-1.43.1,4.85,4.85,0,0,0-3,2.37,10.9,10.9,0,0,0-1,2.49,6.37,6.37,0,0,0-.21,3,4.17,4.17,0,0,0,1.92,2.62,8.24,8.24,0,0,0,3.4,1.24,4.69,4.69,0,0,0,3.42-.75,5.65,5.65,0,0,0,1.9-2.72,7.33,7.33,0,0,0,.41-3,4.46,4.46,0,0,0-1-2.43,6.51,6.51,0,0,0-1.67-1.45c-.56-.35-1.06-.62-1.48-.83C265.13,351.9,264.64,351.71,264.66,351.68Z" style="fill:#263238"></path><path d="M265.44,353.87s.07-.06.23,0a1.06,1.06,0,0,1,.55.39,3.25,3.25,0,0,1,.52.91c.18.38.36.79.57,1.24s.44,1,.64,1.53a2.66,2.66,0,0,1,.05,2,2.6,2.6,0,0,1-1.66,1.42,4,4,0,0,1-2.32-.08,5.56,5.56,0,0,1-2.06-1.07,2.06,2.06,0,0,1-.62-1,2.71,2.71,0,0,1-.06-1.09,14.54,14.54,0,0,1,.48-1.87,5.23,5.23,0,0,1,.73-1.52,2.55,2.55,0,0,1,2.11-1.13,1.62,1.62,0,0,1,.65.17.71.71,0,0,1,.19.14,2.77,2.77,0,0,0-.84-.16,2.47,2.47,0,0,0-1.89,1.14,9.24,9.24,0,0,0-1.07,3.27,1.85,1.85,0,0,0,.58,1.74,5.32,5.32,0,0,0,1.91,1,3.69,3.69,0,0,0,2.1.08,2.23,2.23,0,0,0,1.44-1.19,2.45,2.45,0,0,0,0-1.73c-.18-.54-.41-1.05-.6-1.52s-.35-.88-.51-1.27a3.69,3.69,0,0,0-.43-.89,1.23,1.23,0,0,0-.46-.41C265.52,353.87,265.44,353.89,265.44,353.87Z" style="fill:#263238"></path><path d="M235.5,355.15a5.75,5.75,0,0,1-5.67-1.15,22,22,0,0,0,2.76,1A22,22,0,0,0,235.5,355.15Z" style="fill:#81A1C1"></path><path d="M221.68,367.22s0-.23,0-.66,0-1.07,0-1.89c0-1.67,0-4.1,0-7.22,0-6.28,0-15.33-.09-26.5s0-24.46-.07-39.21c0-3.69,0-7.47,0-11.33,0-1.93,0-3.88,0-5.85v-3a14.35,14.35,0,0,0-.21-2.94,10.12,10.12,0,0,0-2.77-5.15,11.35,11.35,0,0,0-2.39-1.8,11.5,11.5,0,0,0-2.84-1,11.84,11.84,0,0,0-3-.16,11.27,11.27,0,0,0-3,.75,10.77,10.77,0,0,0-2.63,1.6,10.53,10.53,0,0,0-2,2.32,10.21,10.21,0,0,0-1.45,3.59,20.06,20.06,0,0,0-.19,3.89v7.81q0,7.74,0,15.15c0,9.88,0,19.28,0,28,0,17.51-.06,32.46-.08,43.56l-.15-.15,15.46.08,4.13,0h1.07l.38,0h-.35l-1.05,0-4.1,0-15.54.08h-.14v-.14c0-11.1-.05-26.05-.09-43.56,0-8.75,0-18.15,0-28q0-7.41,0-15.15v-7.81a20.69,20.69,0,0,1,.2-4,10.84,10.84,0,0,1,1.52-3.77,11.11,11.11,0,0,1,2.15-2.44,11.33,11.33,0,0,1,2.76-1.68,11.61,11.61,0,0,1,3.12-.78,12.07,12.07,0,0,1,3.18.16,11.57,11.57,0,0,1,3,1.09,10.66,10.66,0,0,1,4.37,4.39,12.06,12.06,0,0,1,1.05,2.91,14.93,14.93,0,0,1,.22,3v3c0,2,0,3.93,0,5.87,0,3.87,0,7.67,0,11.37,0,14.79,0,28.11-.07,39.31s-.07,20.18-.09,26.45c0,3.1,0,5.51,0,7.17,0,.8,0,1.41,0,1.85S221.68,367.22,221.68,367.22Z" style="fill:#263238"></path><path d="M243,367.22s0-.23,0-.66,0-1.07,0-1.89c0-1.67,0-4.1,0-7.22,0-6.28,0-15.33-.09-26.5s0-24.46-.07-39.21q0-5.53,0-11.33c0-1.93,0-3.88,0-5.85v-3a14.35,14.35,0,0,0-.21-2.94,11.1,11.1,0,0,0-1-2.77,10.26,10.26,0,0,0-7-5.21,11.9,11.9,0,0,0-3-.16,11.29,11.29,0,0,0-3,.75,10.77,10.77,0,0,0-2.63,1.6,10.57,10.57,0,0,0-2.05,2.32,10.38,10.38,0,0,0-1.44,3.59,20.06,20.06,0,0,0-.19,3.89v7.81q0,7.74,0,15.15c0,9.88,0,19.28,0,28,0,17.51-.06,32.46-.08,43.56l-.15-.15,15.46.08,4.13,0h1.07l.37,0h-.34l-1.05,0-4.1,0-15.54.08h-.15v-.14c0-11.1-.05-26.05-.08-43.56,0-8.75,0-18.15,0-28q0-7.41,0-15.15v-7.81a20.69,20.69,0,0,1,.2-4,10.84,10.84,0,0,1,1.52-3.77,10.65,10.65,0,0,1,4.91-4.12,11.64,11.64,0,0,1,3.11-.78,12.17,12.17,0,0,1,3.19.16,11.71,11.71,0,0,1,3,1.09,11.84,11.84,0,0,1,2.51,1.88,10.7,10.7,0,0,1,2.91,5.42,14.93,14.93,0,0,1,.22,3v3c0,2,0,3.93,0,5.87,0,3.87,0,7.67,0,11.37,0,14.79,0,28.11-.07,39.31s-.07,20.18-.09,26.45c0,3.1,0,5.51,0,7.17,0,.8,0,1.41,0,1.85S243,367.22,243,367.22Z" style="fill:#263238"></path><path d="M264.31,367.22s0-.23,0-.66,0-1.07,0-1.89c0-1.67,0-4.1,0-7.22,0-6.28,0-15.33-.08-26.5s0-24.46-.08-39.21q0-5.53,0-11.33V271.6a15.09,15.09,0,0,0-.21-2.94,11.51,11.51,0,0,0-1-2.77,10.46,10.46,0,0,0-4.16-4.18,11.28,11.28,0,0,0-2.83-1,11.9,11.9,0,0,0-3-.16,11.47,11.47,0,0,0-3,.75,10.71,10.71,0,0,0-2.62,1.6,10.23,10.23,0,0,0-3.49,5.91,20.06,20.06,0,0,0-.19,3.89v7.81q0,7.74,0,15.15c0,9.88,0,19.28,0,28,0,17.51-.07,32.46-.09,43.56l-.14-.15,15.45.08,4.14,0h1.07l.37,0H264l-1.05,0-4.1,0-15.54.08h-.15v-.14c0-11.1,0-26.05-.08-43.56,0-8.75,0-18.15,0-28q0-7.41,0-15.15v-7.81a19.92,19.92,0,0,1,.2-4,10.82,10.82,0,0,1,1.51-3.77,10.79,10.79,0,0,1,4.91-4.12,11.71,11.71,0,0,1,3.12-.78,12.17,12.17,0,0,1,3.19.16,11.71,11.71,0,0,1,3,1.09,11.84,11.84,0,0,1,2.51,1.88,10.91,10.91,0,0,1,2.91,5.42,14.91,14.91,0,0,1,.21,3v8.85c0,3.87,0,7.67,0,11.37,0,14.79-.06,28.11-.08,39.31s-.06,20.18-.08,26.45c0,3.1,0,5.51,0,7.17,0,.8,0,1.41,0,1.85S264.31,367.22,264.31,367.22Z" style="fill:#263238"></path><path d="M285.63,367.22s0-.23,0-.66,0-1.07,0-1.89c0-1.67,0-4.1,0-7.22,0-6.28-.05-15.33-.08-26.5s-.05-24.46-.08-39.21c0-3.69,0-7.47,0-11.33v-5.85c0-1,0-2,0-3a14.35,14.35,0,0,0-.21-2.94,10.12,10.12,0,0,0-2.77-5.15,10.14,10.14,0,0,0-5.23-2.83,11.8,11.8,0,0,0-3-.16,11.37,11.37,0,0,0-3,.75,10.77,10.77,0,0,0-2.63,1.6,10.53,10.53,0,0,0-2,2.32,10,10,0,0,0-1.44,3.59,20.06,20.06,0,0,0-.2,3.89v23c0,9.88,0,19.28,0,28,0,17.51-.06,32.46-.08,43.56l-.15-.15,15.46.08,4.13,0h1.08l.37,0h-.35l-1,0-4.1,0-15.55.08h-.14v-.14c0-11.1-.05-26.05-.08-43.56,0-8.75,0-18.15,0-28V280.48q0-3.87,0-7.81a19.94,19.94,0,0,1,.21-4,10.63,10.63,0,0,1,1.51-3.77,10.79,10.79,0,0,1,4.91-4.12,11.71,11.71,0,0,1,3.12-.78,12.17,12.17,0,0,1,3.19.16,11.51,11.51,0,0,1,3,1.09,11.9,11.9,0,0,1,2.52,1.88,11.62,11.62,0,0,1,1.85,2.51,11.27,11.27,0,0,1,1.05,2.91,14.93,14.93,0,0,1,.22,3v8.85c0,3.87,0,7.67,0,11.37,0,14.79-.06,28.11-.08,39.31s-.06,20.18-.08,26.45c0,3.1,0,5.51,0,7.17,0,.8,0,1.41,0,1.85S285.63,367.22,285.63,367.22Z" style="fill:#263238"></path><path d="M307,367.22s0-.23,0-.66,0-1.07,0-1.89c0-1.67,0-4.1,0-7.22,0-6.28-.05-15.33-.09-26.5s0-24.46-.07-39.21c0-3.69,0-7.47,0-11.33,0-1.93,0-3.88,0-5.85v-3a14.35,14.35,0,0,0-.21-2.94,10.12,10.12,0,0,0-2.77-5.15,11.16,11.16,0,0,0-2.4-1.8,11.28,11.28,0,0,0-2.83-1,11.84,11.84,0,0,0-3-.16,11.27,11.27,0,0,0-3,.75,10.77,10.77,0,0,0-2.63,1.6,10.53,10.53,0,0,0-2,2.32,10.21,10.21,0,0,0-1.45,3.59,20.06,20.06,0,0,0-.19,3.89v7.81q0,7.74,0,15.15c0,9.88,0,19.28,0,28,0,17.51-.06,32.46-.08,43.56l-.15-.15,15.46.08,4.13,0h1.07l.38,0h-.35l-1.05,0-4.1,0-15.54.08h-.14v-.14c0-11.1,0-26.05-.09-43.56,0-8.75,0-18.15,0-28q0-7.41,0-15.15v-7.81a20.69,20.69,0,0,1,.2-4,10.84,10.84,0,0,1,1.52-3.77,11.11,11.11,0,0,1,2.15-2.44,11.33,11.33,0,0,1,2.76-1.68,11.61,11.61,0,0,1,3.12-.78,12.07,12.07,0,0,1,3.18.16,10.83,10.83,0,0,1,7.35,5.48,12.06,12.06,0,0,1,1.05,2.91,14.93,14.93,0,0,1,.22,3v3c0,2,0,3.93,0,5.87,0,3.87,0,7.67,0,11.37,0,14.79-.05,28.11-.07,39.31s-.07,20.18-.09,26.45c0,3.1,0,5.51,0,7.17,0,.8,0,1.41,0,1.85S307,367.22,307,367.22Z" style="fill:#263238"></path><path d="M307,271.13c0,.14-23.7.26-52.93.26s-52.93-.12-52.93-.26,23.7-.27,52.93-.27S307,271,307,271.13Z" style="fill:#263238"></path><polygon points="371.03 224.01 138.5 224.01 137.51 194.86 370.05 194.86 371.03 224.01" style="fill:#81A1C1"></polygon><g style="opacity:0.4"><polygon points="165.61 226.91 343.92 233.37 343.92 224.35 165.61 224.35 165.61 226.91"></polygon></g><path d="M371.4,224.35c0,.14-52.16.26-116.49.26s-116.5-.12-116.5-.26,52.15-.26,116.5-.26S371.4,224.2,371.4,224.35Z" style="fill:#263238"></path><path d="M194.73,278.67c0,.14-6.56.26-14.65.26s-14.66-.12-14.66-.26,6.56-.26,14.66-.26S194.73,278.52,194.73,278.67Z" style="fill:#263238"></path><path d="M182.1,291.5a68,68,0,0,1-8.34.26,68,68,0,0,1-8.34-.26,65.73,65.73,0,0,1,8.34-.26A65.73,65.73,0,0,1,182.1,291.5Z" style="fill:#263238"></path><path d="M335,297a65.5,65.5,0,0,1-8.33.26,65.6,65.6,0,0,1-8.34-.26,67.9,67.9,0,0,1,8.34-.26A67.8,67.8,0,0,1,335,297Z" style="fill:#263238"></path><path d="M194.29,262.69c0,.15-6.56.26-14.65.26s-14.65-.11-14.65-.26,6.56-.26,14.65-.26S194.29,262.55,194.29,262.69Z" style="fill:#263238"></path><path d="M180.74,278.45a55.73,55.73,0,0,1-.26-7.55,55.73,55.73,0,0,1,.26-7.55,55.73,55.73,0,0,1,.26,7.55A55.73,55.73,0,0,1,180.74,278.45Z" style="fill:#263238"></path><path d="M343.92,310.32c0,.15-5.64.26-12.59.26s-12.59-.11-12.59-.26,5.63-.26,12.59-.26S343.92,310.18,343.92,310.32Z" style="fill:#263238"></path><path d="M338.07,323.6a43.13,43.13,0,0,1-.26-6.64,43.13,43.13,0,0,1,.26-6.64,41.67,41.67,0,0,1,.26,6.64A41.67,41.67,0,0,1,338.07,323.6Z" style="fill:#263238"></path><path d="M342.1,323.6c0,.14-5.26.26-11.75.26s-11.76-.12-11.76-.26,5.26-.26,11.76-.26S342.1,323.45,342.1,323.6Z" style="fill:#263238"></path><path d="M343.92,242.41c0,.15-40,.26-89.25.26s-89.25-.11-89.25-.26,40-.26,89.25-.26S343.92,242.27,343.92,242.41Z" style="fill:#263238"></path><path d="M343.92,230.51c0,.15-10.12.26-22.6.26s-22.6-.11-22.6-.26,10.11-.26,22.6-.26S343.92,230.37,343.92,230.51Z" style="fill:#263238"></path><path d="M308.66,242.81a36.77,36.77,0,0,1-.26-6.13,37,37,0,0,1,.26-6.14,37,37,0,0,1,.26,6.14A36.77,36.77,0,0,1,308.66,242.81Z" style="fill:#263238"></path><path d="M336.07,242.81a36.77,36.77,0,0,1-.26-6.13,37,37,0,0,1,.26-6.14,35.7,35.7,0,0,1,.26,6.14A35.53,35.53,0,0,1,336.07,242.81Z" style="fill:#263238"></path><rect x="168.6" y="155.13" width="38.42" height="40.05" style="fill:#263238"></rect><rect x="166" y="155.13" width="38.42" height="40.05" style="fill:#81A1C1"></rect><path d="M204.4,155.14H166v40H204.4" style="fill:#455a64"></path><rect x="171.16" y="160.51" width="28.09" height="29.28" style="fill:#fafafa"></rect><path d="M171.16,190a4.21,4.21,0,0,1-.69.8c-.45.48-1.08,1.12-1.78,1.81s-1.36,1.32-1.84,1.76a5.22,5.22,0,0,1-.81.68,4.06,4.06,0,0,1,.69-.81c.45-.47,1.08-1.11,1.79-1.81s1.36-1.32,1.84-1.76A4,4,0,0,1,171.16,190Z" style="fill:#263238"></path><path d="M199.25,189.92a4.06,4.06,0,0,1,.81.69c.47.45,1.11,1.08,1.81,1.78s1.31,1.36,1.75,1.84a5.22,5.22,0,0,1,.68.81,4.75,4.75,0,0,1-.8-.69c-.48-.45-1.12-1.08-1.82-1.79s-1.32-1.36-1.76-1.84A5,5,0,0,1,199.25,189.92Z" style="fill:#263238"></path><path d="M199.17,160.59a5.21,5.21,0,0,1,.7-.8c.45-.48,1.08-1.12,1.78-1.81s1.36-1.32,1.84-1.76a5.22,5.22,0,0,1,.81-.68,4.55,4.55,0,0,1-.69.81c-.45.47-1.08,1.11-1.79,1.81s-1.36,1.32-1.84,1.76A3.87,3.87,0,0,1,199.17,160.59Z" style="fill:#263238"></path><path d="M171.09,160.66a3.76,3.76,0,0,1-.81-.69c-.47-.45-1.11-1.08-1.81-1.78s-1.32-1.36-1.76-1.84a4.2,4.2,0,0,1-.67-.81,4.21,4.21,0,0,1,.8.69c.47.45,1.12,1.08,1.81,1.79s1.32,1.36,1.76,1.84A4.94,4.94,0,0,1,171.09,160.66Z" style="fill:#263238"></path><path d="M199.17,189.79v-.55c0-.37,0-.89,0-1.58,0-1.39,0-3.4,0-6,0-5.12,0-12.43-.05-21.18l.1.11-28,0h0l.13-.13c0,10.75,0,20.8,0,29.28l-.11-.1,20.29.05,5.69,0h1.53l-1.48,0-5.68,0-20.35.06h-.1v-.11c0-8.48,0-18.53,0-29.28v-.12h.13l28,0h.11v.1c0,8.78,0,16.11-.05,21.25,0,2.56,0,4.56,0,6,0,.67,0,1.19,0,1.56,0,.16,0,.3,0,.39S199.18,189.79,199.17,189.79Z" style="fill:#e0e0e0"></path><polygon points="189.89 181.11 180.52 181.11 180.52 171.74 185.16 167.12 189.89 171.74 189.89 181.11" style="fill:#263238"></polygon><rect x="184.9" y="178.08" width="1.27" height="3.03" style="fill:#fafafa"></rect><rect x="183.26" y="172.75" width="1.7" height="1.7" style="fill:#fafafa"></rect><rect x="186.11" y="172.75" width="1.7" height="1.7" style="fill:#fafafa"></rect><polygon points="256.91 173.74 256.91 194.72 226.78 194.72 225.69 173.89 256.91 173.74" style="fill:#e0e0e0"></polygon><rect x="230.36" y="169.22" width="20.79" height="30.13" transform="translate(56.47 425.04) rotate(-90)" style="fill:#fff"></rect><path d="M256,194.82H225.55V173.75H256Zm-30.14-.28h29.85V174H225.83Z" style="fill:#e0e0e0"></path><rect x="228.95" y="176.47" width="23.61" height="15.62" style="fill:#fff"></rect><path d="M252.56,176.47h-1.75l-4.86,0-17,0,.07-.07c0,4.78,0,10.07,0,15.63h0L229,192l23.61,0-.06.06c0-4.76,0-8.66,0-11.37,0-1.36,0-2.42,0-3.14v-.83c0-.19,0-.29,0-.29v.28c0,.19,0,.46,0,.81,0,.73,0,1.78,0,3.13,0,2.73,0,6.64,0,11.41v.06H228.88v-.07h0V176.41H229l17,0,4.85,0h1.72Z" style="fill:#e0e0e0"></path><path d="M225.69,173.83a3.61,3.61,0,0,1,.52.34c.31.22.73.54,1.18.9s.85.71,1.13,1a2.47,2.47,0,0,1,.43.44,17.93,17.93,0,0,1-1.65-1.28A15.46,15.46,0,0,1,225.69,173.83Z" style="fill:#e0e0e0"></path><path d="M255.82,173.89a13.7,13.7,0,0,1-1.58,1.35,14,14,0,0,1-1.68,1.23,15,15,0,0,1,1.58-1.35A16.77,16.77,0,0,1,255.82,173.89Z" style="fill:#e0e0e0"></path><path d="M255.8,194.68,252.44,192" style="fill:#fff"></path><path d="M252.44,192a16.83,16.83,0,0,1,1.73,1.3,19.31,19.31,0,0,1,1.63,1.42,14.26,14.26,0,0,1-1.73-1.3A14.72,14.72,0,0,1,252.44,192Z" style="fill:#e0e0e0"></path><path d="M225.69,194.68a14.71,14.71,0,0,1,1.57-1.34,12.79,12.79,0,0,1,1.66-1.21,15.26,15.26,0,0,1-1.57,1.33A14.47,14.47,0,0,1,225.69,194.68Z" style="fill:#e0e0e0"></path><polygon points="236.95 188.34 236.95 184.43 238.78 182.25 240.62 184.31 240.62 188.34 236.95 188.34" style="fill:#f5f5f5"></polygon><polygon points="240.62 188.34 240.62 181.39 242.46 180.08 244.29 181.39 244.29 188.34 240.62 188.34" style="fill:#e0e0e0"></polygon><rect x="241.3" y="182.25" width="0.76" height="0.76" style="fill:#fff"></rect><rect x="242.84" y="182.25" width="0.76" height="0.76" style="fill:#fff"></rect><rect x="237.7" y="184.91" width="0.76" height="0.76" style="fill:#fff"></rect><rect x="239.25" y="184.91" width="0.76" height="0.76" style="fill:#fff"></rect><rect x="241.3" y="183.59" width="0.76" height="0.76" style="fill:#fff"></rect><rect x="242.84" y="183.59" width="0.76" height="0.76" style="fill:#fff"></rect><rect x="242.28" y="187.33" width="0.44" height="1.01" style="fill:#fff"></rect><rect x="238.72" y="187.33" width="0.44" height="1.01" style="fill:#fff"></rect><rect x="156.41" y="366.01" width="200.02" height="13.2" style="fill:#81A1C1"></rect><path d="M243.28,209.62c0,.15-16.54.26-36.93.26s-36.93-.11-36.93-.26,16.53-.26,36.93-.26S243.28,209.48,243.28,209.62Z" style="fill:#263238"></path><path d="M218,209.4a53.75,53.75,0,0,1-.26-7.54,53.84,53.84,0,0,1,.26-7.55,55.73,55.73,0,0,1,.26,7.55A55.64,55.64,0,0,1,218,209.4Z" style="fill:#263238"></path><path d="M201.09,224.49a55.73,55.73,0,0,1-.26-7.55,55.73,55.73,0,0,1,.26-7.55,53.84,53.84,0,0,1,.26,7.55A53.84,53.84,0,0,1,201.09,224.49Z" style="fill:#263238"></path><path d="M254.9,210.41a55.73,55.73,0,0,1-.26-7.55,55.51,55.51,0,0,1,.26-7.54,53.63,53.63,0,0,1,.26,7.54A53.84,53.84,0,0,1,254.9,210.41Z" style="fill:#263238"></path><path d="M237,224.49a55.73,55.73,0,0,1-.26-7.55,55.73,55.73,0,0,1,.26-7.55,55.73,55.73,0,0,1,.26,7.55A55.73,55.73,0,0,1,237,224.49Z" style="fill:#263238"></path><path d="M181.74,209.4a53.75,53.75,0,0,1-.26-7.54,53.84,53.84,0,0,1,.26-7.55,55.73,55.73,0,0,1,.26,7.55A55.64,55.64,0,0,1,181.74,209.4Z" style="fill:#263238"></path><path d="M356.42,366c0,.14-44.79.26-100,.26s-100-.12-100-.26,44.78-.26,100-.26S356.42,365.87,356.42,366Z" style="fill:#263238"></path></g><g id="freepik--Picture--inject-288"><rect x="221.56" y="39.1" width="70.21" height="101.77" style="fill:#263238"></rect><rect x="218.04" y="39.1" width="70.21" height="101.77" style="fill:#81A1C1"></rect><rect x="226.77" y="50.12" width="52.77" height="79.73" style="fill:#fff"></rect><path d="M288.46,39.1a12.43,12.43,0,0,1-1.26,1.82c-.81,1.09-2,2.57-3.29,4.18s-2.56,3-3.47,4a12.06,12.06,0,0,1-1.55,1.58A13.12,13.12,0,0,1,280.23,49l3.39-4.1,3.37-4.1A12.14,12.14,0,0,1,288.46,39.1Z" style="fill:#263238"></path><path d="M288.26,140.87a10.42,10.42,0,0,1-1.48-1.43c-.86-.93-2-2.27-3.19-3.84a48.34,48.34,0,0,1-2.8-4.16,11.78,11.78,0,0,1-1-1.85,13.44,13.44,0,0,1,1.19,1.7c.71,1.07,1.71,2.52,2.88,4.08s2.28,2.91,3.09,3.89A14.69,14.69,0,0,1,288.26,140.87Z" style="fill:#263238"></path><path d="M218,140.79q4.6-5.67,9.2-11.35" style="fill:#fff"></path><path d="M227.23,129.44a70.41,70.41,0,0,1-4.45,5.8,67.31,67.31,0,0,1-4.75,5.55,69.38,69.38,0,0,1,4.45-5.79A71,71,0,0,1,227.23,129.44Z" style="fill:#263238"></path><path d="M218,39.1a59.64,59.64,0,0,1,4.47,5.33A61.71,61.71,0,0,1,226.67,50a64,64,0,0,1-4.46-5.34A66.51,66.51,0,0,1,218,39.1Z" style="fill:#263238"></path><rect x="244.96" y="74.53" width="17.67" height="25.08" style="fill:#81A1C1"></rect><g style="opacity:0.6000000000000001"><rect x="244.96" y="74.53" width="17.67" height="25.08" style="fill:#fff"></rect></g></g><g id="freepik--characters-with-couch--inject-288"><g id="freepik--Couch--inject-288"><rect x="619.64" y="365.2" width="12.76" height="12.76" style="fill:#263238"></rect><rect x="664.27" y="365.2" width="12.76" height="12.76" style="fill:#263238"></rect><rect x="384.91" y="365.2" width="12.76" height="12.76" style="fill:#263238"></rect><rect x="429.15" y="365.2" width="12.76" height="12.76" style="fill:#263238"></rect><path d="M450.56,312.66c.42-3,2.91-88.83,2.91-88.83H688.1v88.83Z" style="fill:#81A1C1"></path><g style="opacity:0.6000000000000001"><path d="M450.56,312.66c.42-3,2.91-88.83,2.91-88.83H688.1v88.83Z"></path></g><rect x="405.59" y="274.11" width="38.44" height="91.08" style="fill:#81A1C1"></rect><g style="opacity:0.6000000000000001"><rect x="405.59" y="274.11" width="38.44" height="91.08"></rect></g><path d="M438.44,312.66c.35-2.5.12-61.79,0-82.09a6.72,6.72,0,0,1,6.72-6.74H676v88.83Z" style="fill:#81A1C1"></path><g style="opacity:0.4"><path d="M438.44,312.66c.35-2.5.12-61.79,0-82.09a6.72,6.72,0,0,1,6.72-6.74H676v88.83Z"></path></g><rect x="406.11" y="312.66" width="200.19" height="52.53" style="fill:#81A1C1"></rect><rect x="367.59" y="274.11" width="38.44" height="91.08" style="fill:#81A1C1"></rect><rect x="606.3" y="273.9" width="38.43" height="91.3" style="fill:#81A1C1"></rect><rect x="643.73" y="273.9" width="44.38" height="91.3" style="fill:#81A1C1"></rect><g style="opacity:0.4"><rect x="643.73" y="273.9" width="44.38" height="91.3"></rect></g><path d="M606.3,365.2c-.13,0-.23-20.44-.23-45.65s.11-45.65.23-45.65.23,20.43.23,45.65S606.42,365.2,606.3,365.2Z" style="fill:#263238"></path><path d="M688,273.74c0,.13-18.29.23-40.85.23s-40.85-.1-40.85-.23,18.29-.22,40.85-.22S688,273.62,688,273.74Z" style="fill:#263238"></path><path d="M644.23,365.29c-.13,0-.23-20.5-.23-45.77s.1-45.78.23-45.78.22,20.49.22,45.78S644.35,365.29,644.23,365.29Z" style="fill:#263238"></path><path d="M623.53,286.9a2.35,2.35,0,0,1,.9,0,5.4,5.4,0,0,1,2.38.75,3.21,3.21,0,0,1,1.19,1.3,3.52,3.52,0,0,1,.22,2,4.23,4.23,0,0,1-2.94,3.36,4.09,4.09,0,0,1-4.18-1.53,3.37,3.37,0,0,1-.68-1.91,3.78,3.78,0,0,1,.37-1.72,3.73,3.73,0,0,1,1.74-1.77,2.5,2.5,0,0,1,.65-.2c.16,0,.24,0,.24,0s-.31.09-.81.37a3.73,3.73,0,0,0-1.53,1.74,3.14,3.14,0,0,0,.36,3.25,3.68,3.68,0,0,0,3.73,1.34,3.85,3.85,0,0,0,2.64-3,3.22,3.22,0,0,0-.15-1.79,2.94,2.94,0,0,0-1-1.19,5.78,5.78,0,0,0-2.22-.85A5.34,5.34,0,0,1,623.53,286.9Z" style="fill:#263238"></path><path d="M620.13,303.58a3.75,3.75,0,0,1-.53-1.5,8.72,8.72,0,0,1,.11-3.84,9,9,0,0,1,1.7-3.45,3.67,3.67,0,0,1,1.18-1.07,14.06,14.06,0,0,1-.92,1.26,10.21,10.21,0,0,0-1.76,7A13.67,13.67,0,0,1,620.13,303.58Z" style="fill:#263238"></path><path d="M629.72,296.35a3.53,3.53,0,0,1-2.33-4,12.26,12.26,0,0,0,.8,2.22C628.83,295.68,629.79,296.23,629.72,296.35Z" style="fill:#263238"></path><path d="M624.24,280.4c0,.06-.26.32-.62.84a4.89,4.89,0,0,0-.86,2.22,4.82,4.82,0,0,0,.34,2.36c.23.58.46.9.41.95s-.37-.23-.7-.82a4.27,4.27,0,0,1-.5-2.54,4.33,4.33,0,0,1,1.06-2.37C623.82,280.54,624.21,280.36,624.24,280.4Z" style="fill:#263238"></path><path d="M385.1,286.9a2.39,2.39,0,0,1,.91,0,5.37,5.37,0,0,1,2.37.75,3.21,3.21,0,0,1,1.19,1.3,3.52,3.52,0,0,1,.22,2,4.24,4.24,0,0,1-2.93,3.36,4.09,4.09,0,0,1-4.18-1.53,3.46,3.46,0,0,1-.69-1.91,3.78,3.78,0,0,1,.37-1.72,3.7,3.7,0,0,1,1.75-1.77,2.4,2.4,0,0,1,.65-.2c.15,0,.23,0,.23,0s-.31.09-.8.37a3.69,3.69,0,0,0-1.54,1.74,3.17,3.17,0,0,0,.36,3.25,3.69,3.69,0,0,0,3.73,1.34,3.82,3.82,0,0,0,2.64-3,3.14,3.14,0,0,0-.15-1.79,2.87,2.87,0,0,0-1-1.19A5.81,5.81,0,0,0,386,287,5.36,5.36,0,0,1,385.1,286.9Z" style="fill:#263238"></path><path d="M381.7,303.58a3.75,3.75,0,0,1-.53-1.5,9,9,0,0,1,1.82-7.29,3.6,3.6,0,0,1,1.17-1.07,11.93,11.93,0,0,1-.92,1.26,10.52,10.52,0,0,0-1.52,3.37,10.28,10.28,0,0,0-.23,3.68A10.23,10.23,0,0,1,381.7,303.58Z" style="fill:#263238"></path><path d="M391.29,296.35a3.53,3.53,0,0,1-2.33-4,14.39,14.39,0,0,0,.8,2.22C390.4,295.68,391.36,296.23,391.29,296.35Z" style="fill:#263238"></path><path d="M385.81,280.4c0,.06-.26.32-.61.84a4.89,4.89,0,0,0-.87,2.22,5.06,5.06,0,0,0,.34,2.36c.23.58.46.9.41.95s-.37-.23-.7-.82A4.26,4.26,0,0,1,385,281C385.4,280.54,385.78,280.36,385.81,280.4Z" style="fill:#263238"></path><path d="M405.84,274.89c.13,0,.23,20.23.23,45.17s-.1,45.17-.23,45.17-.22-20.22-.22-45.17S405.72,274.89,405.84,274.89Z" style="fill:#263238"></path><path d="M675.78,224.18c.13,0,.23,11,.23,24.69s-.1,24.69-.23,24.69-.22-11.05-.22-24.69S675.66,224.18,675.78,224.18Z" style="fill:#263238"></path><path d="M438.44,223.84c.13,0,.13,19.89,0,44.41s-.31,44.42-.44,44.42-.13-19.88,0-44.42S438.32,223.84,438.44,223.84Z" style="fill:#263238"></path><path d="M606.54,344.76c0,.13-45.06.23-100.64.23s-100.64-.1-100.64-.23,45.05-.23,100.64-.23S606.54,344.64,606.54,344.76Z" style="fill:#263238"></path><path d="M606.54,312.67c0,.13-45.06.23-100.64.23s-100.64-.1-100.64-.23,45.05-.22,100.64-.22S606.54,312.55,606.54,312.67Z" style="fill:#263238"></path></g><path d="M501.92,354.69,494,367.64s-15.82-3.7-17.51-1.45L501,382.44l13.16-19.66Z" style="fill:#263238"></path><path d="M502.3,371.6a1.19,1.19,0,0,1-.07,1.6,1.15,1.15,0,0,1-1.59-.05,1.27,1.27,0,0,1,.08-1.69,1.2,1.2,0,0,1,1.65.23" style="fill:#e0e0e0"></path><path d="M501,382.44l1.25-2-24-14.82s-1.4-.25-1.79.6Z" style="fill:#e0e0e0"></path><path d="M493.69,367.25c-.08.12.49.58.82,1.35s.31,1.49.46,1.51.42-.78,0-1.71S493.73,367.12,493.69,367.25Z" style="fill:#455a64"></path><path d="M490.41,366.61c-.11.1.28.65.35,1.42s-.17,1.39,0,1.47.64-.56.54-1.52S490.49,366.5,490.41,366.61Z" style="fill:#455a64"></path><path d="M486.9,368.73c.1.09.66-.4.79-1.26s-.26-1.49-.38-1.42,0,.65-.12,1.35S486.79,368.64,486.9,368.73Z" style="fill:#455a64"></path><path d="M495.82,364.5c0,.14.64.34,1.28.84s1,1.06,1.17,1-.1-.82-.87-1.39S495.82,364.37,495.82,364.5Z" style="fill:#455a64"></path><path d="M497.46,361.92c0,.05.39.44,1.24.81a6.68,6.68,0,0,0,1.55.45,7.09,7.09,0,0,0,.95.1,1.93,1.93,0,0,0,.56,0,.62.62,0,0,0,.48-.6.79.79,0,0,0-.34-.62,1.66,1.66,0,0,0-.51-.24,4.86,4.86,0,0,0-.94-.25,5.15,5.15,0,0,0-1.62,0,2.52,2.52,0,0,0-1.39.52c0,.07.56-.12,1.43-.17a5.36,5.36,0,0,1,1.5.11,5.8,5.8,0,0,1,.85.25c.31.1.53.25.52.41s0,.08-.12.12a1.63,1.63,0,0,1-.41,0q-.46,0-.9-.06a8.51,8.51,0,0,1-1.49-.33A9.64,9.64,0,0,0,497.46,361.92Z" style="fill:#455a64"></path><path d="M497.51,362.19c0,.05.55-.22,1.11-1a4.85,4.85,0,0,0,.72-1.46,4.57,4.57,0,0,0,.18-.95,1.2,1.2,0,0,0-.37-1.14.7.7,0,0,0-.74,0,2.74,2.74,0,0,0-.43.37,3.62,3.62,0,0,0-.55.83,3.32,3.32,0,0,0-.31,1.62c.06.95.46,1.42.5,1.39a10.94,10.94,0,0,1-.15-1.4,3.35,3.35,0,0,1,.38-1.41,2.9,2.9,0,0,1,.49-.69c.21-.24.45-.39.53-.29a.83.83,0,0,1,.16.68,5.68,5.68,0,0,1-.13.87,5.29,5.29,0,0,1-.58,1.39C497.88,361.77,497.45,362.13,497.51,362.19Z" style="fill:#455a64"></path><path d="M566.89,363.79l.65,15.16s-15.2,5.75-15.35,8.56l29.44-.19,0-23.66Z" style="fill:#263238"></path><path d="M576.63,377.62a1.2,1.2,0,0,1,.84,1.37,1.15,1.15,0,0,1-1.34.84,1.27,1.27,0,0,1-.89-1.45,1.2,1.2,0,0,1,1.5-.72" style="fill:#e0e0e0"></path><path d="M581.63,387.32l-.1-2.38L553.34,386s-1.31.58-1.15,1.5Z" style="fill:#e0e0e0"></path><path d="M567.06,378.81c0,.14.72.2,1.43.66s1.1,1.06,1.23,1-.09-.89-1-1.42S567,378.68,567.06,378.81Z" style="fill:#455a64"></path><path d="M564,380.11c0,.13.59.38,1.08,1s.64,1.25.78,1.24.23-.82-.39-1.56S564,380,564,380.11Z" style="fill:#455a64"></path><path d="M562.25,383.81c.13,0,.33-.69,0-1.47s-1.05-1.1-1.11-1,.36.54.66,1.19S562.11,383.8,562.25,383.81Z" style="fill:#455a64"></path><path d="M567.3,375.34c.06.13.72-.08,1.53,0s1.45.31,1.52.18-.54-.63-1.5-.67S567.22,375.22,567.3,375.34Z" style="fill:#455a64"></path><path d="M567.22,372.28a2.82,2.82,0,0,0,1.48,0,7,7,0,0,0,2.38-.94,1.69,1.69,0,0,0,.44-.35.61.61,0,0,0,.06-.76.77.77,0,0,0-.63-.33,1.77,1.77,0,0,0-.55.08,5.25,5.25,0,0,0-.92.32,5.37,5.37,0,0,0-1.35.9c-.68.64-.91,1.18-.86,1.21s.4-.41,1.09-.94a5.88,5.88,0,0,1,1.31-.75,6.37,6.37,0,0,1,.84-.26c.31-.09.58-.09.66.05s0,.07,0,.16a1.35,1.35,0,0,1-.33.26c-.26.17-.52.32-.77.45a7.87,7.87,0,0,1-1.42.55A10.59,10.59,0,0,0,567.22,372.28Z" style="fill:#455a64"></path><path d="M567.41,372.48a2.38,2.38,0,0,0,.38-1.43,4.75,4.75,0,0,0-.59-2.5,1.23,1.23,0,0,0-1-.74.68.68,0,0,0-.61.42,1.69,1.69,0,0,0-.15.54,3.27,3.27,0,0,0,0,1,3.22,3.22,0,0,0,.64,1.52c.58.76,1.18.93,1.19.88s-.46-.35-.9-1.08a3.41,3.41,0,0,1-.48-1.38,3.06,3.06,0,0,1,0-.85c0-.32.15-.57.27-.54s.4.23.52.48a4.43,4.43,0,0,1,.37.8,5.49,5.49,0,0,1,.3,1.47C567.48,371.92,567.33,372.46,567.41,372.48Z" style="fill:#455a64"></path><path d="M580.58,262.57c-.13,0-.23-9-.23-20.08s.1-20.09.23-20.09.22,9,.22,20.09S580.7,262.57,580.58,262.57Z" style="fill:#455a64"></path><path d="M601.78,209.86s-5.89-2.72-22.47-.39c-10.28,1.44-70.49,14.36-70.49,14.36l9.37.41,64,.25Z" style="fill:#263238"></path><path d="M634.33,227.94l-7.64,30.53-4.31,16-14.81.12V283l-28.93,1.67,1.94-22.06-.31-41.77c5.25-6.37,9.83-6.25,9.83-6.25,1.32-.15,2.36-.25,3.12-.35a30.86,30.86,0,0,0,18.61,0h0c2.88.12,5.26,1,7.71,1.48,7.7,1.48,13.25,7.09,14.79,12.27,0,0,13.63,38.11-.23,48.8h0l-9.41-17.94Z" style="fill:#263238"></path><path d="M632.48,259c-.07.08-1.1-.88-2.63-1.62s-2.91-1-2.89-1.09a5.91,5.91,0,0,1,3,.76A5.84,5.84,0,0,1,632.48,259Z" style="fill:#455a64"></path><path d="M620.42,248.82a10.3,10.3,0,0,1,0-1.27c0-.87.07-2,.12-3.43.12-2.9.32-6.9.55-11.32.12-2.21.24-4.31.35-6.23a22.69,22.69,0,0,1,.6-5.08,5.26,5.26,0,0,1,1.93-2.84,3.43,3.43,0,0,1,.84-.44,1.14,1.14,0,0,1,.32-.07,6.22,6.22,0,0,0-1.07.62,5.35,5.35,0,0,0-1.77,2.8,23.36,23.36,0,0,0-.52,5c-.1,1.92-.2,4-.31,6.23-.24,4.42-.47,8.42-.66,11.31-.1,1.41-.18,2.56-.24,3.43,0,.37-.06.68-.08.93S620.44,248.82,620.42,248.82Z" style="fill:#455a64"></path><path d="M633.81,265.81l-16-18.61-6-1.84-1.71,9.89,9,17.66a9.65,9.65,0,0,0,2.44,3.29h0a9.75,9.75,0,0,0,10.77,1.4l1.72-.86Z" style="fill:#263238"></path><path d="M602.51,228.79c-.12,0-.23-.7-.23-1.57s.1-1.57.22-1.57.23.7.23,1.57S602.64,228.79,602.51,228.79Z" style="fill:#455a64"></path><path d="M607.81,227.74c-.11,0-.44-.5-.73-1.22s-.43-1.35-.32-1.4.45.5.74,1.23S607.93,227.7,607.81,227.74Z" style="fill:#455a64"></path><path d="M611.49,224.33c-.09.09-.57-.22-1.07-.69s-.85-.93-.76-1,.56.22,1.07.69S611.57,224.23,611.49,224.33Z" style="fill:#455a64"></path><path d="M613.2,221.17c-.07.1-.51-.09-1-.43s-.78-.69-.7-.79.5.09,1,.43S613.27,221.07,613.2,221.17Z" style="fill:#455a64"></path><path d="M614.23,217.29c0,.12-.52.25-1.17.29s-1.18,0-1.19-.16.52-.26,1.17-.29S614.22,217.16,614.23,217.29Z" style="fill:#455a64"></path><path d="M598,227.34c-.12,0,0-.6.17-1.25s.48-1.15.6-1.11,0,.6-.17,1.25S598.08,227.38,598,227.34Z" style="fill:#455a64"></path><path d="M595.87,222.61c.09.09-.23.52-.7.95s-.92.71-1,.61.23-.51.7-.94S595.79,222.52,595.87,222.61Z" style="fill:#455a64"></path><path d="M594.2,219.64c0,.12-.4.37-1,.55s-1.08.23-1.12.11.4-.36,1-.54S594.16,219.53,594.2,219.64Z" style="fill:#455a64"></path><path d="M593.67,217c0,.12-.59.22-1.32.21s-1.3-.11-1.3-.24.59-.22,1.31-.21S593.67,216.82,593.67,217Z" style="fill:#455a64"></path><path d="M633.25,264.81a5.88,5.88,0,0,1-.82-.83l-2.11-2.39c-1.77-2-4.19-4.85-6.84-8-1.34-1.56-2.56-3.1-3.77-4.39a13,13,0,0,0-3.64-2.86,7.8,7.8,0,0,0-3-.83c-.75,0-1.16,0-1.16,0s.09-.05.29-.09a5,5,0,0,1,.87-.09,7.37,7.37,0,0,1,3.14.72,12.88,12.88,0,0,1,3.81,2.86c1.24,1.3,2.46,2.83,3.8,4.38,2.65,3.14,5,6,6.74,8.07.8,1,1.48,1.83,2,2.48A5.73,5.73,0,0,1,633.25,264.81Z" style="fill:#455a64"></path><path d="M635.55,275.4s-.07.12-.25.31a9.37,9.37,0,0,1-.84.76,10.07,10.07,0,0,1-13-.61A15.17,15.17,0,0,1,619,272.8c-1.42-2.29-2.48-4.59-3.55-6.64l-2.77-5.49c-.74-1.51-1.36-2.76-1.82-3.71a8.54,8.54,0,0,1-.62-1.39,10.56,10.56,0,0,1,.77,1.31l2,3.65c.82,1.57,1.78,3.41,2.85,5.43s2.17,4.35,3.56,6.6a15.43,15.43,0,0,0,2.4,3,10,10,0,0,0,3,1.91,9.82,9.82,0,0,0,5.91.52,10.35,10.35,0,0,0,3.71-1.65C635.15,275.77,635.52,275.37,635.55,275.4Z" style="fill:#455a64"></path><path d="M514.2,369.51l42.4-56.25,51,.28V283l-57.87,3.16a21.73,21.73,0,0,0-17.13,10l-38.14,59.17Z" style="fill:#455a64"></path><path d="M556.71,306.09a17.23,17.23,0,0,1-.12,3.89,16.16,16.16,0,0,1-.56,3.84,17.15,17.15,0,0,1,.12-3.88A16.19,16.19,0,0,1,556.71,306.09Z" style="fill:#263238"></path><path d="M553.59,306.86a26.56,26.56,0,0,1,1.22,3,24.16,24.16,0,0,1,1.23,3,8.29,8.29,0,0,1-1.65-2.85A8,8,0,0,1,553.59,306.86Z" style="fill:#263238"></path><path d="M578.64,284.63l-6.7,3.28a14.19,14.19,0,0,0-7.9,11.76L559.4,367.8l27.48-.19,2.55-56.8-10.79-26.18" style="fill:#455a64"></path><path d="M587.09,284.47a2.33,2.33,0,0,1-.59.09l-1.71.19a43.43,43.43,0,0,0-6.19,1.11,19.91,19.91,0,0,0-8.2,4.15,20.26,20.26,0,0,0-5.75,9.61,30.56,30.56,0,0,0-1.06,5.8c-.21,1.9-.37,3.74-.51,5.5-.28,3.51-.47,6.68-.63,9.34s-.24,4.82-.3,6.31q0,1.05-.06,1.71a2.58,2.58,0,0,1,0,.6,2.87,2.87,0,0,1,0-.6c0-.39,0-1,0-1.72,0-1.49.06-3.65.17-6.32s.27-5.83.53-9.35c.13-1.76.28-3.61.48-5.52a31.17,31.17,0,0,1,1.07-5.88,20.34,20.34,0,0,1,5.9-9.79,20.07,20.07,0,0,1,8.4-4.15,38.5,38.5,0,0,1,6.25-1c.75-.06,1.33-.09,1.72-.1A2.3,2.3,0,0,1,587.09,284.47Z" style="fill:#263238"></path><path d="M589.25,301.89a16.94,16.94,0,0,1,.15,2.81c0,1.73,0,4.13-.06,6.78s-.21,5-.34,6.78a17.62,17.62,0,0,1-.32,2.79,17.29,17.29,0,0,1,0-2.81c.06-1.87.13-4.2.21-6.77s.14-4.91.19-6.77A19.79,19.79,0,0,1,589.25,301.89Z" style="fill:#263238"></path><path d="M592.7,305.27a11.8,11.8,0,0,1-1.19,4.61,12,12,0,0,1-2.54,4c-.12-.07,1.1-1.82,2.12-4.21S592.57,305.24,592.7,305.27Z" style="fill:#263238"></path><path d="M613.28,176l-.13,2.53-1.68,37.95c-.19,4.4-4.14,7.74-8.85,7.5h0c-4.76-.25-8.52-4.06-8.4-8.51.13-4.67.19-9.6.19-9.6s-6-1.18-7-9.08c-.5-3.92.53-10.3.39-15.55-.2-7.19,4.7-8.09,9.38-7.45Z" style="fill:#ffbe9d"></path><path d="M589.07,185.78a1,1,0,0,0,.94,1.05,1,1,0,0,0,1.07-.88,1,1,0,0,0-.94-1A1,1,0,0,0,589.07,185.78Z" style="fill:#263238"></path><path d="M589.08,184.61c.12.13.9-.41,2-.37s1.86.6,2,.47-.06-.3-.4-.56a2.79,2.79,0,0,0-1.58-.54,2.62,2.62,0,0,0-1.59.46C589.14,184.31,589,184.55,589.08,184.61Z" style="fill:#263238"></path><path d="M600.07,186.14a1,1,0,0,0,.94,1.05,1,1,0,0,0,1.07-.88,1,1,0,0,0-.94-1A1,1,0,0,0,600.07,186.14Z" style="fill:#263238"></path><path d="M599.73,185.14c.12.13.9-.41,2-.37s1.86.6,2,.47-.06-.3-.4-.56a2.79,2.79,0,0,0-1.58-.54,2.62,2.62,0,0,0-1.59.46C599.79,184.84,599.67,185.08,599.73,185.14Z" style="fill:#263238"></path><path d="M595.55,193.06a7.28,7.28,0,0,0-1.75-.38c-.28,0-.54-.1-.58-.29a1.43,1.43,0,0,1,.21-.81l.89-2.08a36.88,36.88,0,0,0,2-5.46,36.76,36.76,0,0,0-2.44,5.28c-.3.73-.58,1.43-.85,2.1a1.67,1.67,0,0,0-.18,1.08.69.69,0,0,0,.45.42,1.71,1.71,0,0,0,.47.08A7.4,7.4,0,0,0,595.55,193.06Z" style="fill:#263238"></path><path d="M594.41,205.86a19.91,19.91,0,0,0,10.6-2.48s-2.79,5.44-10.63,4.46Z" style="fill:#eb996e"></path><path d="M598.72,193.91c-.18,0-.22,1.16-1.25,2s-2.28.64-2.3.8.28.24.8.27a3,3,0,0,0,1.92-.6,2.59,2.59,0,0,0,1-1.65C598.92,194.2,598.8,193.9,598.72,193.91Z" style="fill:#263238"></path><path d="M599.58,180.88c.1.3,1.19.19,2.45.39s2.29.57,2.47.31-.09-.41-.5-.71a4,4,0,0,0-1.81-.69,4.14,4.14,0,0,0-1.93.16C599.78,180.52,599.54,180.74,599.58,180.88Z" style="fill:#263238"></path><path d="M589.58,181.48c.18.25.94,0,1.83,0s1.66.21,1.84,0,0-.37-.36-.61a2.66,2.66,0,0,0-3,0C589.61,181.11,589.5,181.36,589.58,181.48Z" style="fill:#263238"></path><path d="M587.62,176.12a2.36,2.36,0,0,0,1.77,2.26,12,12,0,0,0,7.66-.73c3.58-1.52,7.69-2.11,8.54-1.36s.81,4.35,4.19,5.61c0,0-.66,6.82,2.08,6.75s2.68-9.72,2.68-9.72l-7.45-4.72-7.18-1.83-6.92.54-5.38,2.18Z" style="fill:#263238"></path><path d="M611.44,185.84c.13-.06,4.93-1.52,4.83,3.4s-5,3.81-5,3.66S611.44,185.84,611.44,185.84Z" style="fill:#ffbe9d"></path><path d="M612.79,191.07s.08.06.22.13a.85.85,0,0,0,.64,0,2.14,2.14,0,0,0,1-1.89,2.9,2.9,0,0,0-.22-1.23,1,1,0,0,0-.63-.67.43.43,0,0,0-.51.22c-.07.14,0,.24-.07.25s-.1-.09-.06-.29a.5.5,0,0,1,.2-.3.65.65,0,0,1,.48-.12,1.2,1.2,0,0,1,.88.78,3,3,0,0,1,.27,1.38,2.22,2.22,0,0,1-1.3,2.1.93.93,0,0,1-.78-.15C612.79,191.19,612.77,191.08,612.79,191.07Z" style="fill:#eb996e"></path><path d="M587.6,175.29s-.61-6.88,14.12-7,12.82,10.63,12.82,10.63L605.9,175Z" style="fill:#263238"></path><path d="M614.41,177.34s-.31.41-1,.78a6.69,6.69,0,0,1-6,0c-.7-.37-1-.73-1-.78a8.8,8.8,0,0,0,8,0Z" style="fill:#455a64"></path><path d="M614.56,178.93a6.59,6.59,0,0,1-7.56.47,16.83,16.83,0,0,0,3.82.44A17.23,17.23,0,0,0,614.56,178.93Z" style="fill:#455a64"></path><path d="M596.41,234.28l.1,4.75A5.71,5.71,0,0,1,596,242l-1.36,2.92a1.22,1.22,0,0,0-.11.63l1.26,14.69a.38.38,0,0,0,.41.35l8.26-.71a.39.39,0,0,0,.35-.41l-1.25-14.61a1.22,1.22,0,0,0-.24-.63l-1.85-2.72a6.53,6.53,0,0,1-1-2.76l-1-4.69Z" style="fill:#455a64"></path><polyline points="603.75 247.13 598.17 247.6 599.01 257.39 604.58 256.91" style="fill:#fafafa"></polyline><path d="M599.38,234.06l-2.83.24a.66.66,0,0,1-.71-.6h0a.66.66,0,0,1,.6-.72l2.83-.24a.66.66,0,0,1,.71.6h0A.66.66,0,0,1,599.38,234.06Z" style="fill:#455a64"></path><polygon points="599.11 238.86 596.53 239.08 596.45 236.17 598.86 235.96 599.11 238.86" style="fill:#fafafa"></polygon><path d="M604.16,252a2,2,0,1,1-2.19-1.85A2,2,0,0,1,604.16,252Z" style="fill:#81A1C1"></path><path d="M603.78,247.54a6.89,6.89,0,0,1-1.43.22c-.9.11-2.2.25-3.74.39l.15-.18c.12,1.34.26,2.85.4,4.46s.25,3.13.36,4.46l-.18-.15c1.55-.12,2.85-.2,3.76-.25a8.8,8.8,0,0,1,1.44,0,6.52,6.52,0,0,1-1.42.22c-.91.11-2.21.25-3.75.39l-.17,0v-.17c-.12-1.34-.26-2.85-.41-4.46s-.25-3.12-.36-4.46v-.17h.17c1.55-.12,2.85-.2,3.76-.25A8.8,8.8,0,0,1,603.78,247.54Z" style="fill:#e0e0e0"></path><path d="M598.29,236.78c0,.1-.38.22-.87.26s-.89,0-.9-.11.38-.23.87-.27S598.28,236.67,598.29,236.78Z" style="fill:#e0e0e0"></path><path d="M598.38,237.83c0,.1-.38.22-.87.26s-.89,0-.9-.11.38-.23.87-.27S598.37,237.72,598.38,237.83Z" style="fill:#e0e0e0"></path><path d="M603.22,244.69l-8.43,4-.64,10s10.34-2,10.39-2.2,3.58-2.67,3.58-2.67l2,1.46,1.75-9.72-4.24-.87A6.92,6.92,0,0,0,603.22,244.69Z" style="fill:#ffbe9d"></path><polygon points="594.79 248.69 593.14 250.68 593.14 252.96 594.79 254.22 595.98 250.16 594.79 248.69" style="fill:#ffbe9d"></polygon><polygon points="443.24 353.39 432.33 368.4 422.71 361.18 433.68 344.87 443.24 353.39" style="fill:#aa6550"></polygon><path d="M427.14,354.35l-7.67,11.2s-14-4-15.58-2.11l21.18,15.66,12.67-17Z" style="fill:#455a64"></path><path d="M426.7,369.47a1.07,1.07,0,0,1-.13,1.43,1,1,0,0,1-1.42-.12,1.13,1.13,0,0,1,.15-1.51,1.07,1.07,0,0,1,1.46.29" style="fill:#e0e0e0"></path><path d="M425.07,379.1l1.26-1.69L405.53,363s-1.25-.29-1.64.45Z" style="fill:#e0e0e0"></path><path d="M419.21,365.19c-.07.1.41.53.67,1.24s.21,1.34.34,1.37.41-.68.08-1.53S419.26,365.07,419.21,365.19Z" style="fill:#263238"></path><path d="M416.31,364.46c-.1.09.22.59.25,1.29s-.22,1.23-.11,1.31.6-.47.55-1.33S416.38,364.37,416.31,364.46Z" style="fill:#263238"></path><path d="M413.08,366.19c.08.09.61-.32.76-1.08s-.17-1.35-.27-1.29,0,.57-.17,1.2S413,366.1,413.08,366.19Z" style="fill:#263238"></path><path d="M421.24,362.83c0,.12.55.33,1.11.8s.87,1,1,.95,0-.74-.7-1.29S421.25,362.71,421.24,362.83Z" style="fill:#263238"></path><path d="M422.83,360.6s.33.41,1.06.78a6.21,6.21,0,0,0,1.37.48,7.07,7.07,0,0,0,.84.12,1.77,1.77,0,0,0,.51,0,.56.56,0,0,0,.45-.52.72.72,0,0,0-.28-.57,1.89,1.89,0,0,0-.43-.24,5.64,5.64,0,0,0-.83-.26,4.93,4.93,0,0,0-1.45-.08,2.23,2.23,0,0,0-1.26.4c0,.07.5-.08,1.27-.08a4.75,4.75,0,0,1,2.09.43c.27.1.46.24.45.39s0,.07-.12.1a2.09,2.09,0,0,1-.37,0,6.55,6.55,0,0,1-.79-.1,7.32,7.32,0,0,1-1.32-.36A8.56,8.56,0,0,0,422.83,360.6Z" style="fill:#263238"></path><path d="M422.85,360.85s.51-.18,1-.82a4.46,4.46,0,0,0,.72-1.27,4.3,4.3,0,0,0,.2-.84,1.09,1.09,0,0,0-.28-1,.61.61,0,0,0-.66,0,1.63,1.63,0,0,0-.4.31,3.2,3.2,0,0,0-.53.71,3,3,0,0,0-.35,1.43,1.73,1.73,0,0,0,.38,1.27,10.37,10.37,0,0,1-.07-1.25,3.13,3.13,0,0,1,.4-1.25,3,3,0,0,1,.48-.6c.2-.2.41-.32.48-.23a.77.77,0,0,1,.12.62,4.56,4.56,0,0,1-.17.77,4.87,4.87,0,0,1-.57,1.21C423.21,360.48,422.81,360.79,422.85,360.85Z" style="fill:#263238"></path><polygon points="474.26 359 474.87 377.54 462.84 377.75 461.49 358.14 474.26 359" style="fill:#aa6550"></polygon><path d="M462.15,369.64l.82,13.55s-13.5,5.38-13.59,7.9l26.33-.64-.41-21.17Z" style="fill:#455a64"></path><path d="M471.08,381.85a1.08,1.08,0,0,1,.78,1.21,1,1,0,0,1-1.2.77,1.13,1.13,0,0,1-.81-1.28,1.08,1.08,0,0,1,1.33-.67" style="fill:#e0e0e0"></path><path d="M475.71,390.45l0-2.11-25.28,1.39s-1.16.54-1,1.36Z" style="fill:#e0e0e0"></path><path d="M462.54,383.06c0,.13.65.18,1.29.57s1,.93,1.11.88-.09-.79-.88-1.26S462.51,383,462.54,383.06Z" style="fill:#263238"></path><path d="M459.81,384.27c0,.13.53.33,1,.87s.59,1.1.72,1.09.19-.73-.38-1.39S459.81,384.15,459.81,384.27Z" style="fill:#263238"></path><path d="M458.32,387.62c.12,0,.28-.62-.07-1.32s-.95-1-1-.85.33.47.61,1.05S458.19,387.61,458.32,387.62Z" style="fill:#263238"></path><path d="M462.7,380c.05.11.64-.08,1.37,0s1.3.25,1.36.14-.49-.56-1.35-.59S462.63,379.86,462.7,380Z" style="fill:#263238"></path><path d="M462.58,377.22a2.52,2.52,0,0,0,1.32,0,5.8,5.8,0,0,0,1.37-.46,4.71,4.71,0,0,0,.75-.42,1.53,1.53,0,0,0,.39-.32.55.55,0,0,0,0-.68.7.7,0,0,0-.57-.28,1.67,1.67,0,0,0-.49.08,4.65,4.65,0,0,0-.82.3,4.36,4.36,0,0,0-1.19.83c-.6.58-.8,1.06-.75,1.09s.34-.37.95-.85a5.93,5.93,0,0,1,1.16-.7c.24-.09.49-.18.75-.25s.52-.09.59,0,0,.06,0,.15a1.54,1.54,0,0,1-.29.23,6.25,6.25,0,0,1-.69.41,6.62,6.62,0,0,1-1.26.52A8.93,8.93,0,0,0,462.58,377.22Z" style="fill:#263238"></path><path d="M462.75,377.4a2.08,2.08,0,0,0,.32-1.28,4.14,4.14,0,0,0-.22-1.44,3.9,3.9,0,0,0-.35-.79,1.1,1.1,0,0,0-.86-.65.63.63,0,0,0-.54.38,1.66,1.66,0,0,0-.12.49,3.06,3.06,0,0,0,.61,2.24c.53.67,1.07.81,1.08.76s-.41-.3-.82-.95a3.19,3.19,0,0,1-.45-1.23,2.77,2.77,0,0,1,0-.76c0-.28.13-.51.24-.48s.36.2.47.42a4.25,4.25,0,0,1,.35.71,5,5,0,0,1,.28,1.31C462.81,376.9,462.68,377.38,462.75,377.4Z" style="fill:#263238"></path><path d="M468,213.28c-4,.38-6.36,1.06-9,6.61L447.34,242l-8.95-28.68-8.51,4.77,3.34,30.52c1.07,7.21,3.72,12.91,10.52,13.13h0a11.1,11.1,0,0,0,8.78-3.89l9.56-11.24Z" style="fill:#aa6550"></path><path d="M429.57,219.44l-5.13-8.91c-1.44-2.17-1.88-3.16-1.46-3.41s.33-.22,3.51,3.35c0,0-4.49-5.13-2.64-4.79a7.32,7.32,0,0,1,1.95,1.6c-1.08-1.38-1.3-2.21-1-2.52.55-.53,3.34,2.38,4.62,3.77a36.9,36.9,0,0,1-3.31-4c-.41-.87.72-.58,1.58-.07s6.12,4.66,7.67,5.77a1.12,1.12,0,0,0,1.69-.22c1.16-2.51,3.4-3.84,4.18-3.91a.84.84,0,0,1,.49,1.53,9.9,9.9,0,0,0-1.63,2.27,6.86,6.86,0,0,0-.78,2.09c-.16.85-.26,1.58-.32,2.2l2.38,9.34L431,226.88Z" style="fill:#aa6550"></path><path d="M428,212a13.13,13.13,0,0,1-2.27-2.36,12.45,12.45,0,0,1-1.95-2.64,12.66,12.66,0,0,1,2.28,2.36A12.05,12.05,0,0,1,428,212Z" style="fill:#874638"></path><path d="M429.52,211a14.58,14.58,0,0,1-2.57-2.37,14.36,14.36,0,0,1-2.25-2.68,28.33,28.33,0,0,1,4.82,5.05Z" style="fill:#874638"></path><path d="M430.75,209.74a13,13,0,0,1-2.47-2.21,12.4,12.4,0,0,1-2.15-2.51,13.17,13.17,0,0,1,2.46,2.21A12.27,12.27,0,0,1,430.75,209.74Z" style="fill:#874638"></path><path d="M471.46,175.67c-2.29,0-3.79,2.46-4.24,4.71s-.35,4.68-1.51,6.65-3.51,3.35-3.73,5.62c-.27,2.73,2.75,5.27,1.78,7.83s-5.15,2.62-6.21,5.17c-.88,2.09.92,4.62,0,6.7-.75,1.68-2.87,2.17-4.33,3.3a5.66,5.66,0,0,0-1.32,7.14,47.42,47.42,0,0,0,19.73,1.92l8.67-19.42Z" style="fill:#263238"></path><path d="M495.17,175.62a12.3,12.3,0,0,1,3,9.24c-.17,1.77-.71,3.61-.07,5.25s2.38,2.65,3.5,4.06a6.82,6.82,0,0,1,.53,7.43c-1,1.76-2.89,3.09-3.22,5.12-.21,1.38.35,2.8.16,4.18a5,5,0,0,1-2.37,3.38,12.61,12.61,0,0,1-3.89,1.45c-1,.25-2.24.44-3-.29s-.76-1.91-.71-3l1.32-24.81" style="fill:#263238"></path><path d="M496.35,177.71c.13-1.53-1.21-2.79-2.6-3.43s-3-.94-4.18-1.87a21.15,21.15,0,0,1-2.67-3.06,9.43,9.43,0,0,0-16.08,3.41c-.68,2.14-.45,4.74,1.18,6.29,1.9,1.79,4.87,1.59,7.46,1.21s5.5-.73,7.54.9a10.86,10.86,0,0,1,2.6,3.89,6.64,6.64,0,0,0,3.07,3.45c1.46.6,3.52-.17,3.67-1.73" style="fill:#263238"></path><path d="M490.3,177.68c1.32.22,1.1,1.47,1,2.79h0l-2.37,34.41c-.3,4.08-6.4,6-10.76,5.68h0c-4.41-.36-4.43-2.53-4.26-6.42.28-6.49.43-8.93.42-8.89s-5.52-1.26-6.24-8.6c-.36-3.65.18-9.57.77-14.4.54-4.35,3.75-9.53,8.07-8.81Z" style="fill:#aa6550"></path><path d="M470,186.58a.94.94,0,0,0,.84,1,.9.9,0,0,0,1-.79.92.92,0,0,0-.84-1A.89.89,0,0,0,470,186.58Z" style="fill:#263238"></path><path d="M470,185.41c.1.13.84-.35,1.85-.29s1.71.61,1.82.49-.05-.28-.35-.53a2.55,2.55,0,0,0-1.46-.54,2.42,2.42,0,0,0-1.48.38C470,185.14,469.91,185.35,470,185.41Z" style="fill:#263238"></path><path d="M480.24,187.19a.93.93,0,0,0,.84,1,.89.89,0,0,0,1-.78.93.93,0,0,0-.84-1A.89.89,0,0,0,480.24,187.19Z" style="fill:#263238"></path><path d="M479.82,186.19c.11.12.85-.36,1.85-.29s1.71.6,1.83.49-.05-.28-.36-.53a2.59,2.59,0,0,0-1.45-.55,2.48,2.48,0,0,0-1.48.39C479.89,185.91,479.77,186.13,479.82,186.19Z" style="fill:#263238"></path><path d="M475.73,193.41a6.93,6.93,0,0,0-1.61-.39c-.25,0-.49-.11-.53-.28a1.41,1.41,0,0,1,.22-.75l.88-1.91a34.82,34.82,0,0,0,2-5,33.75,33.75,0,0,0-2.4,4.83l-.85,1.92a1.49,1.49,0,0,0-.19,1,.69.69,0,0,0,.4.4,1.52,1.52,0,0,0,.43.08A6.07,6.07,0,0,0,475.73,193.41Z" style="fill:#263238"></path><path d="M474.33,205.25a18.51,18.51,0,0,0,9.9-2s-2.75,4.86-10,3.75Z" style="fill:#874638"></path><path d="M476,195.86a1.8,1.8,0,0,1,1.66-.58,1.67,1.67,0,0,1,1.1.68,1.05,1.05,0,0,1,0,1.2,1.22,1.22,0,0,1-1.34.26,4,4,0,0,1-1.23-.84,1,1,0,0,1-.27-.32.33.33,0,0,1,0-.37" style="fill:#874638"></path><path d="M478.65,194.28c-.16,0-.23,1.07-1.21,1.79s-2.13.53-2.15.68.25.23.74.27a2.73,2.73,0,0,0,1.79-.5,2.37,2.37,0,0,0,.94-1.51C478.83,194.56,478.72,194.28,478.65,194.28Z" style="fill:#263238"></path><path d="M479.39,183.37c.08.28,1.09.21,2.26.42s2.1.59,2.27.35-.07-.38-.44-.66a3.76,3.76,0,0,0-1.66-.7,3.81,3.81,0,0,0-1.8.11C479.58,183,479.35,183.24,479.39,183.37Z" style="fill:#263238"></path><path d="M470.51,182.53c.16.23.87,0,1.7.08s1.53.24,1.7,0,0-.34-.31-.58a2.5,2.5,0,0,0-2.74-.08C470.55,182.18,470.44,182.41,470.51,182.53Z" style="fill:#263238"></path><path d="M494,201.91a6.48,6.48,0,0,1-7.28-7.59c.33-1.77,1.4-3.54.88-5.26-.69-2.29-3.79-3.15-4.49-5.43-.41-1.33.11-2.82-.36-4.12a4.86,4.86,0,0,0-2.87-2.5,12.44,12.44,0,0,1-3.47-1.75c-1-.86-1.54-2.4-.81-3.48a68.78,68.78,0,0,1,15.68,4.77,6.21,6.21,0,0,1,3,2.21,6.5,6.5,0,0,1,.42,3.94l-2,19.55" style="fill:#263238"></path><polygon points="495.54 252.89 505.55 275.01 463.88 280.8 469.12 253.79 495.54 252.89" style="fill:#81A1C1"></polygon><path d="M472.06,214l-4-.68-6.25,19.53a28.42,28.42,0,0,0,.24,18l7.24,20.67,31.13-11.81-4.84-6.8,1.67-10.35L496.37,216l-5.9-.44.06-3.43c-.08-1.89-1.85-2.37-3-2.42l-12.45-.19c-1.1,0-2.46.59-2.62,1.68Z" style="fill:#81A1C1"></path><path d="M496.37,216a11.33,11.33,0,0,1,9.94,7.28c3.39,8.86,8.28,25.29,11.28,35.63a7,7,0,0,1-7,8.9l-25.37-.21-4.76-7.68,22.4-3.79-5.95-14.53-.55-25.6Z" style="fill:#aa6550"></path><path d="M487.68,255.84a23.82,23.82,0,0,1,3.65-1.28,22.77,22.77,0,0,1,3.7-1.17,10.86,10.86,0,0,1-3.53,1.66A10.53,10.53,0,0,1,487.68,255.84Z" style="fill:#263238"></path><path d="M478.94,236.68c.09,0,.05.95.4,2.42a11.2,11.2,0,0,0,2.72,5.11,11.33,11.33,0,0,0,4.95,3c1.44.42,2.4.44,2.39.53a5.71,5.71,0,0,1-2.49-.18,10.45,10.45,0,0,1-7.93-8.38A5.59,5.59,0,0,1,478.94,236.68Z" style="fill:#263238"></path><path d="M504.75,275c.67.89,2.21,4.54,2.79,5.67a29.7,29.7,0,0,1-3.89,32.47h0l-18.22.73-7.84-5.6-34,50-17.45-11.49,38.76-62.28Z" style="fill:#263238"></path><path d="M477.51,365l-19.17.16-2.29-59.62a31.05,31.05,0,0,1,7.33-24.62,4.42,4.42,0,0,1,.64-.66L504.75,275l-19.33,38.88L481,316.06Z" style="fill:#263238"></path><path d="M451.38,306.29a2.56,2.56,0,0,1,.3-.55l.92-1.52,3.36-5.64c1.42-2.38,3.08-5.24,5.14-8.29.52-.76,1.08-1.53,1.7-2.28a10.3,10.3,0,0,1,1-1.08c.38-.33.82-.59,1.23-.89a26.55,26.55,0,0,1,5.71-2.47,91.14,91.14,0,0,1,11.63-2.74c3.62-.65,6.89-1.12,9.64-1.47s5-.59,6.53-.74l1.77-.17a3.74,3.74,0,0,1,.63,0,2.89,2.89,0,0,1-.61.13l-1.77.26-6.5.91c-2.74.39-6,.9-9.6,1.57a97,97,0,0,0-11.56,2.77,26.62,26.62,0,0,0-5.6,2.4c-.39.29-.81.53-1.17.84a9.45,9.45,0,0,0-1,1c-.61.72-1.16,1.48-1.68,2.22-2.08,3-3.76,5.85-5.22,8.21s-2.65,4.26-3.5,5.55c-.43.65-.77,1.15-1,1.48A2.84,2.84,0,0,1,451.38,306.29Z" style="fill:#455a64"></path><path d="M479.33,308.37a32.41,32.41,0,0,1,6.09,5.53,32.41,32.41,0,0,1-6.09-5.53Z" style="fill:#455a64"></path><path d="M456.22,339.74a8.51,8.51,0,0,1,.76-1.33c.52-.84,1.3-2,2.29-3.5,2-2.92,4.8-6.9,8-11.21s6.2-8.18,8.39-10.94c1.1-1.38,2-2.49,2.63-3.25a8.24,8.24,0,0,1,1-1.14,8.9,8.9,0,0,1-.86,1.27c-.65.86-1.49,2-2.5,3.35l-8.27,11c-3.21,4.31-6.08,8.25-8.13,11.11l-2.42,3.41A8.36,8.36,0,0,1,456.22,339.74Z" style="fill:#455a64"></path><path d="M468,213.28s-5.81-.82-8.25,4.59S447.34,242,447.34,242l4,17.22,10.7-12.61Z" style="fill:#81A1C1"></path><path d="M496,241.86l6.84,14.22h13.91l-9.43-31.44a12.83,12.83,0,0,0-6.12-7.67c-1.76-.95-8.43-1.88-10.76-1.46Z" style="fill:#81A1C1"></path><path d="M466.84,210.74c-.61.28-.72,1.11-.6,1.76a5.2,5.2,0,0,1,.28,2c-.23,1.1-1.48,1.64-2.09,2.58-1.27,1.94.55,4.57-.08,6.79a10.51,10.51,0,0,1-1.8,2.86,8.06,8.06,0,0,0-1.14,6.28l7.3.85a6.42,6.42,0,0,1,1.17-5.37,11.21,11.21,0,0,0,2-2.58c.94-2.49-1.66-5.08-1.3-7.72a12.74,12.74,0,0,1,.91-2.55c1.07-2.86.5-6-.09-9" style="fill:#263238"></path><path d="M477.67,242.47l.43,4.59a5.51,5.51,0,0,0,.84,2.76l1.64,2.66a1.27,1.27,0,0,1,.18.6l.45,14.29a.37.37,0,0,1-.36.38l-8,.26a.38.38,0,0,1-.38-.36L472,253.44a1.27,1.27,0,0,1,.16-.64l1.48-2.83a6.51,6.51,0,0,0,.63-2.77l.4-4.63Z" style="fill:#455a64"></path><polyline points="472.05 255.68 477.47 255.51 477.77 265.03 472.35 265.2" style="fill:#fafafa"></polyline><path d="M474.78,242.59l2.75-.08a.64.64,0,0,0,.62-.66h0a.63.63,0,0,0-.66-.62l-2.75.08a.64.64,0,0,0-.62.66h0A.64.64,0,0,0,474.78,242.59Z" style="fill:#455a64"></path><polygon points="475.58 247.19 478.09 247.11 477.84 244.3 475.5 244.37 475.58 247.19" style="fill:#fafafa"></polygon><path d="M472.2,260.44a2,2,0,1,0,3.94-.13,2,2,0,0,0-3.94.13Z" style="fill:#81A1C1"></path><path d="M472.07,256.08a7.39,7.39,0,0,0,1.39.06c.89,0,2.15,0,3.66-.05l-.17-.16c0,1.3.08,2.77.12,4.34s.11,3,.16,4.34l.15-.17c-1.5.06-2.76.13-3.65.18a8.69,8.69,0,0,0-1.39.14,6.52,6.52,0,0,0,1.4.06c.88,0,2.15,0,3.65-.05h.16v-.16c0-1.3-.07-2.78-.11-4.34s-.12-3-.16-4.34v-.17h-.16c-1.51.06-2.77.13-3.65.18A8.29,8.29,0,0,0,472.07,256.08Z" style="fill:#e0e0e0"></path><path d="M476.14,245.09c0,.1.39.17.87.16s.85-.11.85-.21-.39-.18-.87-.16S476.14,245,476.14,245.09Z" style="fill:#e0e0e0"></path><path d="M476.17,246.11c0,.1.39.17.87.16s.85-.11.85-.21-.39-.18-.86-.16S476.17,246,476.17,246.11Z" style="fill:#e0e0e0"></path><path d="M484.58,258.52l-.8-1c-.32-.42-.68-.89-1.07-1.43a6.94,6.94,0,0,1-1-2.09,10.75,10.75,0,0,1-.54-2.84c.05-.88-1-1.38-1.48-.76s-.68,3.05.36,5.71-6.16.61-7.57-.18c-1.86-1-3.48,1-1.74,2.48a1.56,1.56,0,0,0-.64,1.11,2.68,2.68,0,0,0,.84,1.9,9,9,0,0,0,1.17,2.7c1.07,1.68,6.9,3.14,6.9,3.14l7.27.36,1.59-8.35Z" style="fill:#aa6550"></path><path d="M473.9,260.07c0,.14-.91.18-1.87-.32s-1.45-1.26-1.34-1.34.72.43,1.58.87S473.91,259.92,473.9,260.07Z" style="fill:#874638"></path><path d="M474.08,262.84c0,.14-.9.18-1.86-.32s-1.45-1.26-1.34-1.34.71.44,1.58.88S474.1,262.7,474.08,262.84Z" style="fill:#874638"></path><path d="M498.12,232.78a15.63,15.63,0,0,1-.1,3c-.14,1.83-.39,4.35-.78,7.13s-.83,5.27-1.2,7.07a16.74,16.74,0,0,1-.72,2.88,16.66,16.66,0,0,1,.36-3c.29-2,.65-4.39,1-7.07s.68-5.12.94-7.1A17.27,17.27,0,0,1,498.12,232.78Z" style="fill:#263238"></path><path d="M461.51,233.23c.08,0-.45,1.05-.86,2.83a19.67,19.67,0,0,0-.24,7.06,45.9,45.9,0,0,0,1.64,6.94,19.43,19.43,0,0,1,.79,2.88,14.73,14.73,0,0,1-1.14-2.76,35.76,35.76,0,0,1-1.81-7,18,18,0,0,1,.4-7.21,11.47,11.47,0,0,1,.79-2.06C461.32,233.45,461.48,233.21,461.51,233.23Z" style="fill:#263238"></path><path d="M488.68,215.59a7.58,7.58,0,0,1-2.22.53,24.9,24.9,0,0,1-10.89-.89,8,8,0,0,1-2.1-.87,37.35,37.35,0,0,0,15.21,1.23Z" style="fill:#263238"></path></g><g id="freepik--character-2--inject-288"><path d="M397.08,390.14h0a9.15,9.15,0,0,1-9.86-8.73c-.2-5-.39-10-.39-10s-7.54-.68-8.1-8.14-.37-24.68-.37-24.68h0a26,26,0,0,1,26.27,1.61l-.39,26.26,0,14.12C404.25,385.31,401.8,389.76,397.08,390.14Z" style="fill:#ffbe9d"></path><path d="M408.11,341.49A7.94,7.94,0,0,0,405,336.6c-1.81-1.19-4.11-1.29-6.18-2-2.59-.83-8.9-4.72-16.67-2.19L384,350.1a4.63,4.63,0,0,0,2.13,4h0a3.82,3.82,0,0,1,5.1-1.12,4.33,4.33,0,0,1,1.46,5.41A5.74,5.74,0,0,1,389,361.2l1.58,3.14a14.35,14.35,0,0,0,11,7.83h.12a4.82,4.82,0,0,0,4.41-1.85,10,10,0,0,0,2.06-6.42q.15-8.25.29-16.51A23.35,23.35,0,0,0,408.11,341.49Z" style="fill:#263238"></path><path d="M387.48,358.79s0,.14.11.32a1.11,1.11,0,0,0,.83.41,2,2,0,0,0,1.93-2.06,2.15,2.15,0,0,0-.56-1.58,2.18,2.18,0,0,0-1.17-.67c-.76-.16-1.21.13-1.17.18s.45,0,1.07.18a1.87,1.87,0,0,1,1.29,1.86,1.72,1.72,0,0,1-1.39,1.71C387.79,359.18,387.54,358.74,387.48,358.79Z" style="fill:#eb996e"></path><path d="M398.37,334.51c10.15-2.89,13,5,13.62,10.26a32.23,32.23,0,0,1-.73,10.67,24.9,24.9,0,0,1-2.87,7.59,12.31,12.31,0,0,1-6.08,5.21" style="fill:#263238"></path><path d="M382.53,332.43a7.69,7.69,0,0,0-6,6.12c-.57,3.36,1.19,6.69,3.32,9.34a20.06,20.06,0,0,0,6.21,5.36,39.9,39.9,0,0,0-2.6-20" style="fill:#263238"></path><path d="M399.27,363.14a.71.71,0,0,1-.38.12,1.63,1.63,0,0,1-1.08-.33,2.64,2.64,0,0,1-1-1.5,12,12,0,0,1-.19-2.33,8.71,8.71,0,0,0-2.31-5.28,20.47,20.47,0,0,0-5.78-4.36,42.52,42.52,0,0,1-6.27-3.93,11.34,11.34,0,0,1-3.56-4.89,7.26,7.26,0,0,1-.35-4.07,4.86,4.86,0,0,1,.37-1.05c.11-.23.17-.35.19-.34s-.2.5-.36,1.43a7.51,7.51,0,0,0,.49,3.9,11.31,11.31,0,0,0,3.53,4.65A44.59,44.59,0,0,0,388.8,349a20.39,20.39,0,0,1,5.89,4.5,9,9,0,0,1,2.31,5.58,11.37,11.37,0,0,0,.11,2.27,2.33,2.33,0,0,0,.82,1.4A1.65,1.65,0,0,0,399.27,363.14Z" style="fill:#455a64"></path><path d="M399.71,361.88a26.35,26.35,0,0,0-1.38-5.15,18.55,18.55,0,0,0-3-4.9,18.16,18.16,0,0,0-5.47-4.37,61.21,61.21,0,0,1-6.23-3.55,10.86,10.86,0,0,1-3.74-4.53,6.52,6.52,0,0,1-.5-3.92,4.08,4.08,0,0,1,.34-1c.11-.22.17-.33.19-.32s-.2.48-.33,1.39a6.61,6.61,0,0,0,.64,3.74,10.71,10.71,0,0,0,3.68,4.28,67,67,0,0,0,6.2,3.48,18.38,18.38,0,0,1,5.59,4.52,18,18,0,0,1,3,5.08,16.22,16.22,0,0,1,1,3.83c.06.47.07.83.08,1.08S399.73,361.88,399.71,361.88Z" style="fill:#455a64"></path><path d="M379.67,346.85a16.58,16.58,0,0,1,2.93,6.55c.45,2.23.44,4.53,1,6.73s1.86,4.4,4,5.17a2.69,2.69,0,0,0-.21-2.47c-.41-.76-1-1.43-1.33-2.22-1-2.39.35-5.15,0-7.73-.34-2.24-2-4-3.5-5.7" style="fill:#263238"></path><path d="M390.85,364.8s.39-.43,1-1.24a10.93,10.93,0,0,0,2.07-3.81,7.45,7.45,0,0,0,.24-2.94,6.61,6.61,0,0,0-1.31-3.09,5,5,0,0,0-3.08-1.88,20.54,20.54,0,0,0-4.09.17,7.61,7.61,0,0,1-4.15-.89,9.46,9.46,0,0,1-3-2.56,11.1,11.1,0,0,1-2.21-6.21,15.94,15.94,0,0,1,.41-4.44,12,12,0,0,1,.33-1.16c.09-.26.14-.4.16-.39s-.11.57-.29,1.6a17.17,17.17,0,0,0-.24,4.36,10.81,10.81,0,0,0,2.22,5.94,8,8,0,0,0,6.76,3.23,19.74,19.74,0,0,1,4.21-.15,5.38,5.38,0,0,1,3.37,2.09,7,7,0,0,1,1.35,3.32,7.46,7.46,0,0,1-.31,3.11,10.54,10.54,0,0,1-2.27,3.84,10.88,10.88,0,0,1-.86.85A1.74,1.74,0,0,1,390.85,364.8Z" style="fill:#455a64"></path><path d="M364.52,380.73s2.49,13.59-5.77,15.33l-.27,14.26s4.46,1.77,4.28,2.52-10.41,1-10.14-.14,4.34-2.3,4.34-2.3l-.06-14.53s-5.27-.39-5.51-6.85a54,54,0,0,1,0-8.21S358,376.88,364.52,380.73Z" style="fill:#fff"></path><path d="M364.52,380.73l-.21-.11-.62-.34c-.14-.06-.29-.16-.46-.23l-.59-.23a6.71,6.71,0,0,0-.69-.26l-.8-.22a13,13,0,0,0-4.29-.27c-.42,0-.85.12-1.3.19s-.9.2-1.35.34a13.82,13.82,0,0,0-2.81,1.16h0v0a35.42,35.42,0,0,0-.15,3.92c0,1.37,0,2.81.09,4.3a8.18,8.18,0,0,0,1.35,4.44,6.26,6.26,0,0,0,4.23,2.5l-.08-.09c0,4.48,0,9.4.05,14.53l.07-.1a17.89,17.89,0,0,0-3.19,1.26,4,4,0,0,0-.94.66,1.37,1.37,0,0,0-.18.24.51.51,0,0,0-.07.15.28.28,0,0,0,0,.19.38.38,0,0,0,.23.26l.27.12a10.08,10.08,0,0,0,2.22.32,37.65,37.65,0,0,0,4.38,0c.71,0,1.43-.1,2.13-.21a4.82,4.82,0,0,0,.52-.11l.27-.08a.68.68,0,0,0,.26-.16.31.31,0,0,0,0-.35,1,1,0,0,0-.18-.23,3.39,3.39,0,0,0-.42-.33,14.59,14.59,0,0,0-1.82-1c-.62-.29-1.23-.55-1.85-.8l.05.08c.09-5.26.18-10.07.25-14.26l-.06.08a6.63,6.63,0,0,0,3.45-1.9,8.29,8.29,0,0,0,.61-.72,7.48,7.48,0,0,0,.48-.76c.08-.13.15-.26.22-.39l.18-.39c.13-.26.22-.53.32-.79a14.49,14.49,0,0,0,.71-3,22.76,22.76,0,0,0,.18-2.6,26.34,26.34,0,0,0-.2-3.6c0-.41-.09-.72-.13-.93a2.92,2.92,0,0,0-.06-.32s0,.11,0,.32.07.52.11.94a27.9,27.9,0,0,1,.15,3.59,20.93,20.93,0,0,1-.2,2.59,14.24,14.24,0,0,1-.71,3c-.11.26-.19.52-.32.78l-.18.39-.22.38c-.13.26-.32.49-.48.75a7.59,7.59,0,0,1-.6.69,6.46,6.46,0,0,1-3.38,1.85h-.06v.06c-.08,4.18-.18,9-.28,14.26v.06l.06,0c.61.25,1.23.51,1.84.8a14.28,14.28,0,0,1,1.8,1,3,3,0,0,1,.39.31.8.8,0,0,1,.15.18.17.17,0,0,1,0,.14,1,1,0,0,1-.42.18l-.51.1a20.93,20.93,0,0,1-2.11.21,39.45,39.45,0,0,1-4.35,0,9.41,9.41,0,0,1-2.18-.32c-.15-.05-.35-.14-.37-.23a.39.39,0,0,1,.06-.2,1.56,1.56,0,0,1,.16-.2,3.92,3.92,0,0,1,.9-.63,17.79,17.79,0,0,1,3.14-1.24l.07,0v-.07c0-5.13,0-10-.06-14.53v-.08h-.09a6,6,0,0,1-4.1-2.42,8,8,0,0,1-1.33-4.34c-.06-1.5-.1-2.93-.1-4.3a37.61,37.61,0,0,1,.13-3.9l0,.05a13.24,13.24,0,0,1,2.77-1.15c.46-.15.91-.24,1.34-.35s.87-.16,1.29-.19a13.23,13.23,0,0,1,4.26.23l.8.22a6.87,6.87,0,0,1,.69.24l.59.22c.17.07.32.16.46.23l.63.31Z" style="fill:#263238"></path><path d="M351.4,380.67a2.47,2.47,0,0,0,.48.22l.59.23c.23.07.49.17.79.25a16.32,16.32,0,0,0,2.11.48,18,18,0,0,0,2.64.21,19.65,19.65,0,0,0,2.65-.19,16.06,16.06,0,0,0,2.11-.47c.3-.07.56-.17.8-.25a5.14,5.14,0,0,0,.58-.22,3.45,3.45,0,0,0,.49-.22,2.67,2.67,0,0,0-.51.15l-.6.19c-.23.06-.49.15-.79.22a19.15,19.15,0,0,1-2.11.42,18.09,18.09,0,0,1-5.23,0,18.76,18.76,0,0,1-2.1-.43c-.3-.07-.56-.16-.8-.23a5.93,5.93,0,0,1-.59-.19A2.25,2.25,0,0,0,351.4,380.67Z" style="fill:#263238"></path><path d="M364,386.58a16.06,16.06,0,0,1-1.38,4.88,5.71,5.71,0,0,1-3.82,3.12,5.2,5.2,0,0,1-5.06-2.41,9.06,9.06,0,0,1-1.48-5.9.42.42,0,0,1,.34-.41,2.67,2.67,0,0,1,1.24-.17,5.23,5.23,0,0,1,1,.48c1.43.74,3.15.44,4.73.13s2.8-.8,4.45.28" style="fill:#81A1C1"></path><g style="opacity:0.2"><path d="M352.82,383.09a14.41,14.41,0,0,0,.21,5.66,7.78,7.78,0,0,0,2,4.32,3.81,3.81,0,0,0,4.43.78,2,2,0,0,0,.93-1.11,1.24,1.24,0,0,0-.42-1.33c-.54-.37-1.27-.12-1.92-.12a3.21,3.21,0,0,1-2.74-2,6.26,6.26,0,0,1-.28-3.51,7.65,7.65,0,0,0,.17-1.84,1.82,1.82,0,0,0-.93-1.51,1.06,1.06,0,0,0-1.46.65" style="fill:#fff"></path></g><path d="M364.87,405.41,363.78,402l-.25-1.27c-.11-.52-.22-1.1-.32-1.76a7.22,7.22,0,0,1,.05-2.32,10.32,10.32,0,0,1,.81-2.77c.43-.77-.26-1.68-1-1.35s-2,2.41-2.26,5.26-2.61-.08-3.51-1.42c-1.19-1.78-3.54-.72-2.68,1.43a1.5,1.5,0,0,0-1.06.71,2.68,2.68,0,0,0-.11,2.07,7.12,7.12,0,0,0-.17,2.67,10.38,10.38,0,0,0,1.57,4l4,4.39" style="fill:#ffbe9d"></path><path d="M443.05,440.18s5.28,6,2,13.06-16.07,17.83-25.87,22.6-23.11,4-23.11,4-12.81.84-20.59.05-32.65-8.59-48.48-23.15-6.27-22.11-2.51-22.36a64,64,0,0,1,29.16,5c13.57,5.78,31.95,9.78,31.95,9.78s31-1.22,44.88-8.47C438.43,436.53,443.05,440.18,443.05,440.18Z" style="fill:#263238"></path><path d="M342.37,441.3a1.28,1.28,0,0,0,.3.16l.86.37c.75.33,1.84.77,3.2,1.3,2.72,1.06,6.53,2.42,10.76,3.8s8.09,2.58,10.87,3.45l3.3,1,.9.27.32.07a1.13,1.13,0,0,0-.3-.13l-.88-.33c-.77-.28-1.89-.66-3.27-1.12l-10.84-3.54c-4.23-1.39-8-2.71-10.78-3.71l-3.24-1.2-.88-.32A1.51,1.51,0,0,0,342.37,441.3Z" style="fill:#455a64"></path><path d="M393.41,480.32a5,5,0,0,0,.81-.32c.51-.23,1.24-.56,2.13-1a25.53,25.53,0,0,0,6.45-4.33,12.74,12.74,0,0,0,3.76-6.76,8.67,8.67,0,0,0,.1-2.36,6.31,6.31,0,0,0-.1-.64.78.78,0,0,0-.06-.22,12.62,12.62,0,0,1-.16,3.18,13.07,13.07,0,0,1-3.76,6.57,27.9,27.9,0,0,1-6.34,4.36l-2.08,1.1A4.75,4.75,0,0,0,393.41,480.32Z" style="fill:#455a64"></path><path d="M383.83,479.67l-.25,0-.71-.06-2.7-.17-9.54-.55.13.16a12.06,12.06,0,0,1,1.34-4.82,7,7,0,0,1,1.7-2.07,5.78,5.78,0,0,1,2.47-1.21h-.06l.45.1,14.57,3.24-.08-.19a12.8,12.8,0,0,1-5,4.62,14.93,14.93,0,0,1-1.73.76l-.63.22.17,0,.48-.13a12.29,12.29,0,0,0,1.77-.7,12.7,12.7,0,0,0,5.12-4.62l.09-.15-.17,0-14.56-3.3-.45-.1h0a6.64,6.64,0,0,0-4.4,3.45,12.14,12.14,0,0,0-1.35,4.94l0,.15h.15l9.57.42,2.7.1h.71C383.75,479.69,383.83,479.68,383.83,479.67Z" style="fill:#455a64"></path><path d="M408.42,479.08a2.84,2.84,0,0,0,.53-.3,10,10,0,0,0,1.34-1.06,8.21,8.21,0,0,0,1.6-2.07,12,12,0,0,0,1.12-3.12l-.11.12,3.45-.89c2.1-.53,4.06-1,5.73-1.36l-.16-.15a23,23,0,0,1-.4,2.34,7.12,7.12,0,0,1-.65,1.7,10.76,10.76,0,0,1-.93,1.29,1.36,1.36,0,0,0,.33-.27,6,6,0,0,0,.74-.94,6.63,6.63,0,0,0,.73-1.72c.19-.7.32-1.5.46-2.36l0-.19-.2,0c-1.69.31-3.66.79-5.76,1.31l-3.45.91-.09,0,0,.09a12.92,12.92,0,0,1-1,3.06,8.5,8.5,0,0,1-1.5,2.05C409.14,478.6,408.39,479,408.42,479.08Z" style="fill:#455a64"></path><path d="M437.56,442c0-.08-3.12,1.48-6.87,3.48s-6.77,3.68-6.73,3.76,3.12-1.48,6.88-3.48S437.61,442.12,437.56,442Z" style="fill:#455a64"></path><path d="M430,445.74a6.31,6.31,0,0,0,1.58-1.29,6.43,6.43,0,0,0,1.36-1.52,6.68,6.68,0,0,0-1.58,1.29A6.9,6.9,0,0,0,430,445.74Z" style="fill:#455a64"></path><path d="M333.05,438.2a16.64,16.64,0,0,1,9.59,3,4.86,4.86,0,0,0-1.17-1,13.06,13.06,0,0,0-3.3-1.57,12.86,12.86,0,0,0-3.61-.59A5.48,5.48,0,0,0,333.05,438.2Z" style="fill:#455a64"></path><path d="M342.24,438.83c-.06.07.52.52.93,1.3s.46,1.49.56,1.49a2.06,2.06,0,0,0-.28-1.64C343,439.12,342.27,438.75,342.24,438.83Z" style="fill:#455a64"></path><path d="M384,380.6a135.28,135.28,0,0,1,20.37-1.42s13.35,1.6,14.82,5.24c1.4,3.47-4,42.94-2.81,43.09l7.1,21.75s-.52,15.12-17.9,15.88c-18.72.82-30.9-8.59-32.73-13.39,0,0,6.66-16.34,6.66-17.1s1.25-13.81,1.25-13.81l-.72-4.82c-4.86,10-10.93,19.75-13.62,20.64-6.53,2.16-12.53-1.47-12.78-7.39C353.48,425,364.8,402.13,371,389.9A17.32,17.32,0,0,1,384,380.6Z" style="fill:#81A1C1"></path><path d="M419.22,384.42c2.26,1,18.84,39.18,15.82,42.7-2.45,2.86-5.39,7-11.26,4.48a12.85,12.85,0,0,1-6-5.47l-5.79-10.06Z" style="fill:#81A1C1"></path><path d="M353.66,430.2c.12-.35,1.44-17.57,4-21.8,1.8-3,6.68-1.6,6.68-1.6Z" style="fill:#81A1C1"></path><path d="M356.28,421a2.73,2.73,0,0,0,.33-.61l.81-1.72,2.65-5.67c1-2.22,1.94-4.24,2.57-5.72.31-.74.56-1.34.71-1.76a3,3,0,0,0,.22-.66,2.73,2.73,0,0,0-.33.61l-.81,1.72-2.65,5.67c-1,2.22-1.94,4.24-2.57,5.72-.31.74-.56,1.34-.71,1.76A3,3,0,0,0,356.28,421Z" style="fill:#263238"></path><g style="opacity:0.30000000000000004"><path d="M387.17,400.05c.48,10.29.88,21-3.23,30.46-.68,1.56-1.6,3.18-3.17,3.82a.73.73,0,0,1-.82-.06c-.11-.15-.37-.27-.36-.45.08-1.66.42-3.4.5-5.06.14-2.78.7-7.92.7-7.92,0,.19-.69-4.62-.69-4.62,1.46-4.78,7.07-15.56,7.07-15.56"></path></g><path d="M384.59,382.89l.38.3a11.86,11.86,0,0,1,1.06.86,9.42,9.42,0,0,1,2.58,4.21,15.33,15.33,0,0,1,.06,7.35,26.32,26.32,0,0,1-1.25,4.21c-.27.71-.59,1.42-.93,2.13l-1,2.19c-2.69,5.9-5.13,11.25-6.92,15.15l-2.06,4.61c-.23.53-.41,1-.55,1.26a3.05,3.05,0,0,0-.17.45,2.29,2.29,0,0,0,.23-.42l.6-1.23c.53-1.11,1.26-2.67,2.16-4.57l7-15.11,1-2.19c.34-.72.66-1.44.93-2.16a25.84,25.84,0,0,0,1.25-4.26,15.42,15.42,0,0,0-.13-7.48,9.29,9.29,0,0,0-2.72-4.24,9.76,9.76,0,0,0-1.1-.82A2.18,2.18,0,0,0,384.59,382.89Z" style="fill:#263238"></path><path d="M419.22,384.42a2.34,2.34,0,0,0,.06.44c.06.32.14.73.23,1.25.06.27.12.57.18.89a8.16,8.16,0,0,1,.17,1.08c.1.78.2,1.66.32,2.63a58.78,58.78,0,0,1-1,15.27c-1.06,5.91-2.36,11.21-2.72,15.15-.09,1-.19,1.87-.19,2.66a19.43,19.43,0,0,0,0,2c0,.52.06.94.08,1.27a2.19,2.19,0,0,0,.05.44,2.37,2.37,0,0,0,0-.45c0-.32,0-.74,0-1.26a18.14,18.14,0,0,1,.06-2c0-.78.13-1.67.24-2.64.41-3.92,1.74-9.2,2.8-15.12a56,56,0,0,0,.9-15.35c-.14-1-.26-1.86-.37-2.64a9.32,9.32,0,0,0-.2-1.07c-.07-.33-.14-.63-.2-.9-.13-.51-.22-.92-.3-1.23A2.93,2.93,0,0,0,419.22,384.42Z" style="fill:#263238"></path><path d="M384.78,448.4a8.42,8.42,0,0,1-1.46-2.57,8.52,8.52,0,0,1-1-2.79,8.66,8.66,0,0,1,1.46,2.57A8.52,8.52,0,0,1,384.78,448.4Z" style="fill:#fafafa"></path><path d="M395.72,449a31.46,31.46,0,0,1-4.85,6.55,16.75,16.75,0,0,1,2.22-3.43A17.1,17.1,0,0,1,395.72,449Z" style="fill:#fafafa"></path><path d="M393.24,439.67a12.22,12.22,0,0,1-.32-3.47,12,12,0,0,1,.2-3.47,11.41,11.41,0,0,1,.32,3.47A11.27,11.27,0,0,1,393.24,439.67Z" style="fill:#fafafa"></path><path d="M406.79,458.35a15.92,15.92,0,0,1-4.07-4,7.77,7.77,0,0,1,2.22,1.79A8,8,0,0,1,406.79,458.35Z" style="fill:#fafafa"></path><path d="M415.05,449.74a5.86,5.86,0,0,1-.69,2.3,5.92,5.92,0,0,1-1.18,2.1,5.7,5.7,0,0,1,.7-2.3A5.6,5.6,0,0,1,415.05,449.74Z" style="fill:#fafafa"></path><path d="M409.17,445.31c-.09.11-1.05-.58-2-1.65a5.46,5.46,0,0,1-1.45-2.19c.12-.08.88.79,1.83,1.84S409.27,445.2,409.17,445.31Z" style="fill:#fafafa"></path><path d="M415.05,436.44a5.06,5.06,0,0,1-2.54-.79c-1.32-.68-2.22-1.5-2.13-1.61a53.22,53.22,0,0,1,4.67,2.4Z" style="fill:#fafafa"></path><path d="M405.71,426.14a114.15,114.15,0,0,1-3.72,4.67,9.39,9.39,0,0,1,3.72-4.67Z" style="fill:#fafafa"></path><path d="M386.74,434.21a27.31,27.31,0,0,1-3.19-6.8,13.74,13.74,0,0,1,1.83,3.29A13.6,13.6,0,0,1,386.74,434.21Z" style="fill:#fafafa"></path><path d="M396.67,418.55a17.51,17.51,0,0,1-4.75,3.63,17.51,17.51,0,0,1,4.75-3.63Z" style="fill:#fafafa"></path><path d="M392.67,410.9a16.74,16.74,0,0,1-4.44-3.83,8.25,8.25,0,0,1,2.39,1.72A8.75,8.75,0,0,1,392.67,410.9Z" style="fill:#fafafa"></path><path d="M395.71,393.48c.09.12-.88,1-2,2a11,11,0,0,1-2.2,1.87,6.46,6.46,0,0,1,1.85-2.25A6.74,6.74,0,0,1,395.71,393.48Z" style="fill:#fafafa"></path><path d="M396.48,383.86a5,5,0,0,1-2.48-.45,4.78,4.78,0,0,1-2.2-1.21,8.6,8.6,0,0,1,2.38.72A8.5,8.5,0,0,1,396.48,383.86Z" style="fill:#fafafa"></path><path d="M379.11,390.8c-.11.08-.85-.65-1.55-1.73a4.53,4.53,0,0,1-.94-2.12c.13-.07.7.79,1.38,1.84S379.23,390.7,379.11,390.8Z" style="fill:#fafafa"></path><path d="M382.58,398.09a11.77,11.77,0,0,1-3,1.78,11.64,11.64,0,0,1-3.24,1.32,12.06,12.06,0,0,1,3-1.78A11.77,11.77,0,0,1,382.58,398.09Z" style="fill:#fafafa"></path><path d="M369.53,406.61c-.14,0-.5-.87-.63-2.05a3.62,3.62,0,0,1,.15-2.14c.15,0,.24.94.37,2.08A6,6,0,0,1,369.53,406.61Z" style="fill:#fafafa"></path><path d="M374.54,415.44a6.78,6.78,0,0,1-2.28,1.33,6.69,6.69,0,0,1-2.49.85,6.85,6.85,0,0,1,2.28-1.32A6.77,6.77,0,0,1,374.54,415.44Z" style="fill:#fafafa"></path><path d="M361.94,422.9a5.61,5.61,0,0,1-.31-2.39,5.76,5.76,0,0,1,.21-2.4,5.89,5.89,0,0,1,.31,2.39A5.76,5.76,0,0,1,361.94,422.9Z" style="fill:#fafafa"></path><path d="M363.06,429.73a11.16,11.16,0,0,1-4.79,0,11.16,11.16,0,0,1,4.79,0Z" style="fill:#fafafa"></path><path d="M421.61,422.18a9.51,9.51,0,0,1,.91-4.33,9.51,9.51,0,0,1-.91,4.33Z" style="fill:#fafafa"></path><path d="M428.23,427.57a13.63,13.63,0,0,1-5.18-1.21,13.63,13.63,0,0,1,5.18,1.21Z" style="fill:#fafafa"></path><path d="M429.58,420.14a19.68,19.68,0,0,1-.76-7.78,20.36,20.36,0,0,1,.51,3.88A19.87,19.87,0,0,1,429.58,420.14Z" style="fill:#fafafa"></path><path d="M425.33,402.21c-.06.13-.87-.16-1.8-.66s-1.63-1-1.56-1.12.88.17,1.8.66S425.4,402.09,425.33,402.21Z" style="fill:#fafafa"></path><path d="M401.79,366.62a2.68,2.68,0,0,1-2.68-2.39,3.68,3.68,0,0,1,1.71-3.36,5.94,5.94,0,0,1,3.81-.81,4.31,4.31,0,0,1,2.64,1,2.18,2.18,0,0,1,.46,2.63" style="fill:#81A1C1"></path><path d="M406.61,362.86a8.85,8.85,0,0,0-4,.83c-2.26,1.29-1.18,2.58-1.17,4.43s-.94,3.61-.92,5.51c.05,4.25,1.49,8.52.5,12.76-.89,3.83-3.8,7.34-3.12,11.22.61,3.48,4.06,6.23,3.79,9.75-.24,3.16-3.47,6-2.41,9,.89,2.48,4.06,3.06,6.69,3.25,3.39.25,6.87.48,10.12-.5s6.29-3.47,6.9-6.82-1.29-6.66-2.41-9.92a22.59,22.59,0,0,1-1.16-9.12c.18-2.27.7-4.63,0-6.8-.76-2.33-2.82-4-3.89-6.22a16.79,16.79,0,0,1-1.22-5.84c-.46-5.15-2.13-10.52-7.66-11.5" style="fill:#263238"></path><path d="M405.9,418.24a3.79,3.79,0,0,1,.18-.56c.15-.42.35-.94.58-1.58a18,18,0,0,0,1.26-6A9.85,9.85,0,0,0,407,406c-.63-1.39-1.53-2.77-2.38-4.29a10.83,10.83,0,0,1-1.67-5.25,12,12,0,0,1,1.58-5.68c.9-1.81,1.95-3.46,2.74-5.16a10.3,10.3,0,0,0,1.19-5.12,9.88,9.88,0,0,0-1.6-4.49c-.78-1.31-1.63-2.48-2.3-3.62a9.6,9.6,0,0,1-1.6-6,4.69,4.69,0,0,1,.5-1.63,2.3,2.3,0,0,1,.33-.49,6.36,6.36,0,0,0-.63,2.14,9.69,9.69,0,0,0,1.71,5.77c.69,1.11,1.55,2.26,2.36,3.59a10.28,10.28,0,0,1,1.71,4.68,10.76,10.76,0,0,1-1.21,5.37c-.8,1.73-1.85,3.4-2.74,5.17a11.69,11.69,0,0,0-1.53,5.45,10.35,10.35,0,0,0,1.58,5c.83,1.51,1.72,2.92,2.35,4.35a10,10,0,0,1,.92,4.24,17,17,0,0,1-1.44,6.07c-.27.68-.51,1.2-.67,1.55A2.29,2.29,0,0,1,405.9,418.24Z" style="fill:#455a64"></path><path d="M410.9,418.39s.21,0,.58-.18a3,3,0,0,0,1.33-1.07,4.06,4.06,0,0,0,.77-2.55,6.42,6.42,0,0,0-1.32-3.32c-.77-1.12-1.86-2.15-2.93-3.39a11.06,11.06,0,0,1-1.47-2.08,8.34,8.34,0,0,1-.83-2.6,12.62,12.62,0,0,1,.72-5.72,45.55,45.55,0,0,1,2.5-5.62,21.83,21.83,0,0,0,2-5.69,10.07,10.07,0,0,0-.56-5.47c-1.33-3.34-3.56-5.85-4.88-8.28a13,13,0,0,1-2-6.21,6.91,6.91,0,0,1,.19-1.77,2.29,2.29,0,0,1,.2-.59,10.94,10.94,0,0,0-.19,2.36,13.48,13.48,0,0,0,2.1,6c1.34,2.37,3.6,4.84,5,8.29a10.49,10.49,0,0,1,.61,5.73,22.24,22.24,0,0,1-2.06,5.82,48.08,48.08,0,0,0-2.49,5.56,12.34,12.34,0,0,0-.72,5.5,7.69,7.69,0,0,0,.75,2.45,11.61,11.61,0,0,0,1.4,2,42.79,42.79,0,0,1,2.91,3.46,6.64,6.64,0,0,1,1.3,3.52,4.21,4.21,0,0,1-.9,2.69,3,3,0,0,1-1.45,1A1.47,1.47,0,0,1,410.9,418.39Z" style="fill:#455a64"></path></g><g id="freepik--character-1--inject-288"><path d="M113.37,288.77c-1.89,1.49-2,4.26-1.92,6.66s.12,5.14-1.62,6.8c-1.43,1.36-3.94,1.87-4.35,3.81a2.3,2.3,0,0,0,1,2.39,2.33,2.33,0,0,0,2.6-.17,3.9,3.9,0,0,0,1,4.46c1.29,1,3.56.53,4-1a2,2,0,1,0,3.86.9" style="fill:#263238"></path><path d="M138.49,309.62A2.38,2.38,0,1,0,143,308c-.37-.93-1.32-1.64-1.37-2.64,0-1.21,1.22-2,2.33-2.48s2.43-1.1,2.6-2.29-.82-2.12-1.66-2.94-1.63-2.06-1-3.07c.3-.52.88-.8,1.28-1.25a2.63,2.63,0,0,0-.49-3.55,4.81,4.81,0,0,0-3.75-.88,38.71,38.71,0,0,0-3.85,1,15.81,15.81,0,0,1-12.53-2.26" style="fill:#263238"></path><path d="M127.64,334.23h0a8.86,8.86,0,0,0,7.71-9.82c-.31-2.7-.36-5.06-.36-5.06s6.58-1.32,6.32-8.19-2.26-22.6-2.26-22.6h0a23.92,23.92,0,0,0-23.84,4.24l-1,.83,3.51,32.74A8.87,8.87,0,0,0,127.64,334.23Z" style="fill:#b78876"></path><path d="M135,319.35a16,16,0,0,1-9.08-2.09s2.34,4.89,9.16,3.92Z" style="fill:#b78876"></path><path d="M115.68,300.71c-.12,0-4.8-1.16-4.41,3.53s5,3.33,5,3.2S115.68,300.71,115.68,300.71Z" style="fill:#b78876"></path><path d="M114.71,305.78s-.08.06-.21.14a.84.84,0,0,1-.61.06,2,2,0,0,1-1.09-1.73,2.72,2.72,0,0,1,.13-1.19.94.94,0,0,1,.57-.68.42.42,0,0,1,.5.18c.07.13,0,.23.07.23s.1-.09,0-.28a.47.47,0,0,0-.21-.27.59.59,0,0,0-.46-.09,1.17,1.17,0,0,0-.79.8,2.65,2.65,0,0,0-.17,1.33,2.12,2.12,0,0,0,1.35,1.93.88.88,0,0,0,.74-.19C114.71,305.89,114.72,305.79,114.71,305.78Z" style="fill:#aa6550"></path><path d="M138.68,299.33a1,1,0,0,1-.89,1,1,1,0,0,1-1.06-.83,1,1,0,0,1,.9-1A.92.92,0,0,1,138.68,299.33Z" style="fill:#263238"></path><path d="M138.48,298.3c-.12.13-.89-.38-1.95-.33s-1.8.63-1.92.5,0-.29.38-.55a2.69,2.69,0,0,1,1.53-.56,2.58,2.58,0,0,1,1.55.42C138.41,298,138.53,298.24,138.48,298.3Z" style="fill:#263238"></path><path d="M128.13,300.27a1,1,0,0,1-.9,1,.94.94,0,0,1-1-.83,1,1,0,0,1,.89-1A.94.94,0,0,1,128.13,300.27Z" style="fill:#263238"></path><path d="M128.11,299c-.12.13-.89-.38-1.94-.32s-1.81.62-1.93.5.05-.29.38-.56a2.69,2.69,0,0,1,1.53-.55,2.61,2.61,0,0,1,1.56.41C128,298.73,128.16,299,128.11,299Z" style="fill:#263238"></path><path d="M132.34,306.66a6.8,6.8,0,0,1,1.7-.4c.26,0,.52-.11.55-.3a1.32,1.32,0,0,0-.22-.79q-.42-1-.9-2a34.92,34.92,0,0,1-2.06-5.28,36,36,0,0,1,2.48,5.1l.87,2a1.53,1.53,0,0,1,.19,1.05.67.67,0,0,1-.42.42,1.65,1.65,0,0,1-.45.08A6.75,6.75,0,0,1,132.34,306.66Z" style="fill:#263238"></path><path d="M129.27,307.54c.17,0,.23,1.13,1.25,1.89s2.24.58,2.25.74-.26.24-.77.28a2.92,2.92,0,0,1-1.88-.55,2.54,2.54,0,0,1-1-1.59C129.08,307.83,129.19,307.54,129.27,307.54Z" style="fill:#263238"></path><path d="M138,296.46c-.17.25-.91,0-1.79.07s-1.6.24-1.79,0,0-.37.34-.61a2.55,2.55,0,0,1,1.43-.47,2.45,2.45,0,0,1,1.45.41C138,296.09,138.07,296.34,138,296.46Z" style="fill:#263238"></path><path d="M126.54,295.27c-.11.14-.38.1-.74.05a7,7,0,0,0-1.31-.11,7.56,7.56,0,0,0-1.31.16c-.35.06-.62.11-.74,0s0-.43.33-.75a2.76,2.76,0,0,1,3.41-.06C126.55,294.85,126.65,295.15,126.54,295.27Z" style="fill:#263238"></path><path d="M121.31,289.84l0,0a5.37,5.37,0,0,0-1.65,3.65v.14c-.08,2,.16,3.93.07,5.89a8.86,8.86,0,0,1-1.88,5.47c-.54.61-1.54,1.09-2.09.49a1.74,1.74,0,0,1-.33-.86c-.81-4.65-2.5-8.68-3-13.57a4.17,4.17,0,0,1,1.39-3.53c1-.83,2.13-1.71,3.32-1.29s2.87,2.42,3.85,3.24" style="fill:#263238"></path><path d="M117,287c-1.32-1.75,1.55-4.72,3.77-5.67s5.36-.12,7.71.41a12.7,12.7,0,0,0,4.5.66,10.75,10.75,0,0,0,2.87-1,7.44,7.44,0,0,1,2.91-.88,2.82,2.82,0,0,1,2.6,1.31,1.77,1.77,0,0,1-.94,2.49,2.29,2.29,0,1,1,1,4.17c.61-.57,1.7.16,1.7,1a2.42,2.42,0,0,1-1.41,1.92,8.76,8.76,0,0,1-6.22.51c-2.07-.48-4-1.35-6.09-1.88s-5.51-1.51-7.44-.61c-1.42.66-2.27,2.53-3.14,2.22a2.88,2.88,0,0,1-1.67-1.95A8.1,8.1,0,0,1,117,287" style="fill:#263238"></path><polygon points="282.26 430.05 313.71 429.72 311.23 418.47 283.12 416.38 282.26 430.05" style="fill:#b78876"></polygon><path d="M298.14,416l14.56.95s5.87-14.48,8.57-14.57l-.84,28.31-22.75-.56Z" style="fill:#81A1C1"></path><path d="M311.21,425.68a1.17,1.17,0,0,0,1.3.84,1.1,1.1,0,0,0,.84-1.28,1.22,1.22,0,0,0-1.37-.88,1.15,1.15,0,0,0-.73,1.42" style="fill:#e0e0e0"></path><path d="M320.43,430.7l-2.29-.15,1.67-27.08s.58-1.24,1.46-1.08Z" style="fill:#e0e0e0"></path><path d="M312.57,416.5c.14,0,.18.7.61,1.39s1,1.08.93,1.2-.85-.1-1.35-.95S312.45,416.47,312.57,416.5Z" style="fill:#263238"></path><path d="M313.89,413.57c.13,0,.35.57.92,1.06s1.19.64,1.18.78-.8.2-1.5-.42S313.76,413.57,313.89,413.57Z" style="fill:#263238"></path><path d="M317.49,412c0,.12-.67.29-1.42-.08s-1-1-.91-1.09.51.36,1.13.66S317.48,411.85,317.49,412Z" style="fill:#263238"></path><path d="M309.23,416.65c.12.06-.09.69-.06,1.47s.26,1.4.14,1.47-.6-.53-.62-1.45S309.12,416.58,309.23,416.65Z" style="fill:#263238"></path><path d="M306.29,416.51a2.85,2.85,0,0,1-.05,1.42,6.73,6.73,0,0,1-.5,1.47,7.4,7.4,0,0,1-.46.8,1.81,1.81,0,0,1-.35.42.59.59,0,0,1-.73,0,.75.75,0,0,1-.3-.62,2,2,0,0,1,.09-.53,4.75,4.75,0,0,1,.33-.87,5,5,0,0,1,.89-1.28c.63-.64,1.15-.85,1.18-.8s-.4.37-.92,1a5.82,5.82,0,0,0-.75,1.25,6.27,6.27,0,0,0-.28.8c-.08.3-.09.56,0,.64s.07,0,.16,0a1.45,1.45,0,0,0,.25-.31,7.2,7.2,0,0,0,.45-.73,8.49,8.49,0,0,0,.57-1.36A9.12,9.12,0,0,1,306.29,416.51Z" style="fill:#263238"></path><path d="M306.48,416.7a2.22,2.22,0,0,1-1.38.33,4.54,4.54,0,0,1-2.4-.63,1.17,1.17,0,0,1-.69-.92.67.67,0,0,1,.42-.58,1.88,1.88,0,0,1,.52-.13,3.07,3.07,0,0,1,1,0,3.14,3.14,0,0,1,1.44.64c.72.58.87,1.16.82,1.17s-.32-.44-1-.89a3.12,3.12,0,0,0-2.13-.49c-.31,0-.55.15-.53.26s.22.39.45.51a4.42,4.42,0,0,0,.76.37,4.85,4.85,0,0,0,1.41.32C305.94,416.75,306.46,416.62,306.48,416.7Z" style="fill:#263238"></path><path d="M86.77,422.25l-2.4,9.21-26.95-.25s3.68-2.78,17.22-2.58L76,422.25Z" style="fill:#b78876"></path><path d="M219.7,333.81c.77-1.91,8.58-5.28,7.56-6.47-1.34-1.56-8,3.88-8.59,4.29s-1.2-.44-.64-.79c.8-.5,9.1-6,7.8-7.51-.72-.85-2.11.62-2.11.62s-7.4,5.7-8,4.95,3.64-4.25,5.15-5.33,1.61-2.22.61-2.5c-.68-.19-5.38,3-6.85,4.09s-5.44,4.19-4.67,1,.19-5.84-.45-6.46-1.74.09-1.56,1.08a12,12,0,0,1-.17,3.26,11.6,11.6,0,0,1-.81,2.48,9.58,9.58,0,0,1-3.42,4.39l8,9.89,1.06-.72c4.07-2.77,7.9-3.83,10.11-5.11,4.11-2.37,3.91-2.75,3.56-3.19C225.37,330.64,218.92,335.71,219.7,333.81Z" style="fill:#b78876"></path><path d="M69.87,427.58l21.34-81.33a35.85,35.85,0,0,1,4.85-10.82,22.9,22.9,0,0,1,18.44-10.12l3.12-.05c1,2.27.27,2.42,4.24,5.3,6,3.13,12.31.39,13.54-5.55h0l7.62,4c4.56,2,8.48,5.84,12.11,9.23l15.14,14.17,32.61-22.28,10.19,11.74L181.72,367a18.27,18.27,0,0,1-25.92-1.61l2.12,8.42,9.7,7.08-8,11.79a22,22,0,0,1-6.92,6.5l-19.12,11.37a7.5,7.5,0,0,1-9.46-4l-16.91-38.35L87.85,428.36" style="fill:#81A1C1"></path><g style="opacity:0.4"><path d="M202.88,330.17l-32.61,22.28-15.14-14.17c-3.63-3.39-7.55-7.25-12.11-9.23l-7.62-4c-1.23,5.93-7.5,8.67-13.54,5.54a11.09,11.09,0,0,1-4.24-5.3l-3.12.05a22.9,22.9,0,0,0-18.44,10.12,35.85,35.85,0,0,0-4.85,10.82L69.87,427.58l18,.78,19.33-60.17,16.91,38.35a7.5,7.5,0,0,0,9.46,4l19.12-11.37a22,22,0,0,0,6.92-6.5l8-11.79-9.7-7.08-2.12-8.42A18.27,18.27,0,0,0,181.72,367l31.35-25.1Z"></path></g><path d="M158.12,374a10.85,10.85,0,0,1-.52-1.35c-.31-.87-.74-2.15-1.25-3.73-1-3.17-2.32-7.57-3.58-12.48s-2.24-9.41-2.87-12.67c-.32-1.63-.56-2.95-.71-3.87a9.26,9.26,0,0,1-.19-1.43,8.29,8.29,0,0,1,.36,1.4c.21,1,.5,2.27.84,3.84.71,3.24,1.74,7.71,3,12.62s2.52,9.31,3.46,12.5c.45,1.54.83,2.81,1.11,3.77A8.71,8.71,0,0,1,158.12,374Z" style="fill:#263238"></path><path d="M113.32,350.72a17.16,17.16,0,0,1-.81,2.64c-.61,1.73-1.36,3.89-2.19,6.28s-1.59,4.55-2.2,6.28a20.67,20.67,0,0,1-1,2.58,14.25,14.25,0,0,1,.67-2.68c.48-1.63,1.21-3.87,2.08-6.32s1.68-4.66,2.31-6.25A16.12,16.12,0,0,1,113.32,350.72Z" style="fill:#263238"></path><path d="M148.27,359.72a1.68,1.68,0,0,1,.14.41c.07.27.2.67.3,1.19a25.44,25.44,0,0,1,.56,4.52,27.59,27.59,0,0,1-13.85,25.08,26.23,26.23,0,0,1-4.12,1.93c-.5.19-.9.29-1.17.38a1.89,1.89,0,0,1-.42.1,14.22,14.22,0,0,1,1.53-.64,29.24,29.24,0,0,0,4-2A28.08,28.08,0,0,0,149,365.84a29,29,0,0,0-.42-4.48A14.75,14.75,0,0,1,148.27,359.72Z" style="fill:#263238"></path><path d="M170.15,362.13a13.48,13.48,0,0,1,.12-10.24,39.81,39.81,0,0,0-.63,5.11A39.23,39.23,0,0,0,170.15,362.13Z" style="fill:#263238"></path><path d="M172.69,361.11a11.82,11.82,0,0,1-2.14-9.39,33,33,0,0,0,.5,4.83A32.57,32.57,0,0,0,172.69,361.11Z" style="fill:#263238"></path><path d="M135.4,325a2.71,2.71,0,0,1-.13.95,7.12,7.12,0,0,1-1.12,2.38,8.81,8.81,0,0,1-2.93,2.57,10,10,0,0,1-4.63,1.19,9.19,9.19,0,0,1-4.61-1.21,9.3,9.3,0,0,1-3-2.54,7.8,7.8,0,0,1-1.24-2.31,3.07,3.07,0,0,1-.21-.94,13.08,13.08,0,0,0,1.74,3,9.34,9.34,0,0,0,2.89,2.35,9,9,0,0,0,4.38,1.11,9.77,9.77,0,0,0,4.4-1.1,8.73,8.73,0,0,0,2.86-2.36A11.12,11.12,0,0,0,135.4,325Z" style="fill:#263238"></path><path d="M152.51,335.75c0,.15-13.07.95-29.21,1.79S94.07,339,94.07,338.81s13.06-.95,29.2-1.79S152.5,335.61,152.51,335.75Z" style="fill:#fafafa"></path><path d="M105.67,372.56c0,.14-4.77,0-10.65-.23a104.79,104.79,0,0,1-10.62-.74c0-.14,4.77,0,10.65.22A106.4,106.4,0,0,1,105.67,372.56Z" style="fill:#fafafa"></path><path d="M149.43,363.31c0,.14-8.53,3.07-19.15,6.54S111,376,111,375.89s8.53-3.06,19.16-6.54S149.39,363.17,149.43,363.31Z" style="fill:#fafafa"></path><path d="M154.6,362.93a7.91,7.91,0,0,1-2.43,1.45,7.83,7.83,0,0,1-2.66,1,8,8,0,0,1,2.43-1.46A7.93,7.93,0,0,1,154.6,362.93Z" style="fill:#fafafa"></path><path d="M162.79,345.39a47.09,47.09,0,0,1-4.63,5.22,46.8,46.8,0,0,1-5,4.86,47.09,47.09,0,0,1,4.63-5.22A47.92,47.92,0,0,1,162.79,345.39Z" style="fill:#fafafa"></path><path d="M96.12,402.25a87.78,87.78,0,0,1-9.73-.13,92.45,92.45,0,0,1-9.71-.64,89.12,89.12,0,0,1,9.73.12A93.94,93.94,0,0,1,96.12,402.25Z" style="fill:#fafafa"></path><path d="M164.85,379.53s-.09.14-.32.38l-1,1c-.43.44-1,1-1.63,1.53s-1.37,1.26-2.23,1.95a76.36,76.36,0,0,1-6.15,4.64,78.5,78.5,0,0,1-16.74,8.67,74.3,74.3,0,0,1-7.35,2.34c-1.06.31-2,.5-2.88.7s-1.58.34-2.19.44l-1.39.24a1.81,1.81,0,0,1-.49,0,1.55,1.55,0,0,1,.47-.15l1.37-.33c.6-.13,1.33-.29,2.17-.52s1.8-.45,2.84-.77c2.11-.59,4.58-1.41,7.27-2.44a91,91,0,0,0,8.57-3.85c2.95-1.54,5.67-3.18,8.08-4.76s4.49-3.16,6.19-4.54c.87-.66,1.6-1.32,2.27-1.88s1.23-1.05,1.68-1.46l1.06-.93A2.18,2.18,0,0,1,164.85,379.53Z" style="fill:#fafafa"></path><path d="M189.78,355.15c-.15,0-1-2.8-2.52-6.12s-3-5.89-2.87-6a6.22,6.22,0,0,1,1.15,1.58,35.78,35.78,0,0,1,2.19,4.17,36.69,36.69,0,0,1,1.64,4.42A6.68,6.68,0,0,1,189.78,355.15Z" style="fill:#fafafa"></path><path d="M303.6,413.33l-50.18-4.77L233.91,349a20.65,20.65,0,0,0-34.62-7.2L167.62,380.9l-7,9.67a31.74,31.74,0,0,1-9.74,8.82l-20,11.63,6.24,8.81a27.36,27.36,0,0,0,22.34,11.55l144.18-.07ZM170.29,400l18.56,2.84L213,369l13.2,37-2.7-.26Z" style="fill:#263238"></path><path d="M254.81,408.69h-.24l-.72,0-2.78-.2-10.18-.8-33.59-2.83-18.49-1.6c-2.84-.26-5.53-.47-8.06-.74a59.69,59.69,0,0,1-7-1.18,21.14,21.14,0,0,1-5.51-1.95,13.13,13.13,0,0,1-3.48-2.7,9.67,9.67,0,0,1-1.56-2.31,4.94,4.94,0,0,1-.36-.9,11.73,11.73,0,0,0,2,3.09,13.12,13.12,0,0,0,3.47,2.61,21.41,21.41,0,0,0,5.46,1.86,61.88,61.88,0,0,0,6.94,1.12c2.51.26,5.22.45,8.06.7l18.49,1.57,33.58,2.95,10.17.94,2.76.28.72.09Z" style="fill:#455a64"></path><path d="M215.23,354.69a16,16,0,0,1-.65,2.05,31.69,31.69,0,0,0-1.52,10.12,17.85,17.85,0,0,1,0,2.14,7.22,7.22,0,0,1-.32-2.13,23.56,23.56,0,0,1,.22-5.2,24.39,24.39,0,0,1,1.31-5A8,8,0,0,1,215.23,354.69Z" style="fill:#455a64"></path><path d="M209.15,360a47,47,0,0,0,1.52,4.78c1.08,2.56,2.51,4.32,2.4,4.41a11.52,11.52,0,0,1-2.8-4.24A11.39,11.39,0,0,1,209.15,360Z" style="fill:#455a64"></path><path d="M299.57,418.71a35.6,35.6,0,0,0-1.33,6.29,36.13,36.13,0,0,0,.25,6.42,6,6,0,0,1-.5-1.84,18.35,18.35,0,0,1-.19-4.62,19.1,19.1,0,0,1,1-4.51A6,6,0,0,1,299.57,418.71Z" style="fill:#455a64"></path></g></svg>